<?xml version="1.0" encoding="utf-8" standalone="no"?>
<!DOCTYPE svg PUBLIC "-//W3C//DTD SVG 1.1//EN"
  "http://www.w3.org/Graphics/SVG/1.1/DTD/svg11.dtd">
<svg xmlns:xlink="http://www.w3.org/1999/xlink" width="515.68pt" height="344.96pt" viewBox="0 0 515.68 344.96" xmlns="http://www.w3.org/2000/svg" version="1.1">
 <metadata>
  <rdf:RDF xmlns:dc="http://purl.org/dc/elements/1.1/" xmlns:cc="http://creativecommons.org/ns#" xmlns:rdf="http://www.w3.org/1999/02/22-rdf-syntax-ns#">
   <cc:Work>
    <dc:type rdf:resource="http://purl.org/dc/dcmitype/StillImage"/>
    <dc:date>2026-08-15T16:48:35.390772</dc:date>
    <dc:format>image/svg+xml</dc:format>
    <dc:creator>
     <cc:Agent>
      <dc:title>Matplotlib v3.11.0, https://matplotlib.org/</dc:title>
     </cc:Agent>
    </dc:creator>
   </cc:Work>
  </rdf:RDF>
 </metadata>
 <defs>
  <style type="text/css">*{stroke-linejoin: round; stroke-linecap: butt}</style>
 </defs>
 <g id="figure_1">
  <g id="patch_1">
   <path d="M 0 344.96 
L 515.68 344.96 
L 515.68 -0 
L 0 -0 
z
" style="fill: #ffffff"/>
  </g>
  <g id="axes_1">
   <g id="patch_2">
    <path d="M 63.02 290.444375 
L 449.3 290.444375 
L 449.3 16.624219 
L 63.02 16.624219 
z
" style="fill: #ffffff"/>
   </g>
   <g id="matplotlib.axis_1">
    <g id="xtick_1">
     <g id="line2d_1">
      <defs>
       <path id="mb21a9d3387" d="M 0 0 
L 0 6 
" style="stroke: #000000"/>
      </defs>
      <g>
       <use xlink:href="#mb21a9d3387" x="63.02" y="290.444375" style="stroke: #000000"/>
      </g>
     </g>
     <g id="text_1">
      <!-- $\mathdefault{0}$ -->
      <g transform="translate(58.54 311.592813) scale(0.16 -0.16)">
       <defs>
        <path id="ArialMT-13" d="M 266 2259 
Q 266 3072 433 3567 
Q 600 4063 929 4331 
Q 1259 4600 1759 4600 
Q 2128 4600 2406 4451 
Q 2684 4303 2865 4023 
Q 3047 3744 3150 3342 
Q 3253 2941 3253 2259 
Q 3253 1453 3087 958 
Q 2922 463 2592 192 
Q 2263 -78 1759 -78 
Q 1097 -78 719 397 
Q 266 969 266 2259 
z
M 844 2259 
Q 844 1131 1108 757 
Q 1372 384 1759 384 
Q 2147 384 2411 759 
Q 2675 1134 2675 2259 
Q 2675 3391 2411 3762 
Q 2147 4134 1753 4134 
Q 1366 4134 1134 3806 
Q 844 3388 844 2259 
z
" transform="scale(0.015625)"/>
       </defs>
       <use xlink:href="#ArialMT-13" transform="translate(0 0.125)"/>
      </g>
     </g>
    </g>
    <g id="xtick_2">
     <g id="line2d_2">
      <g>
       <use xlink:href="#mb21a9d3387" x="111.305" y="290.444375" style="stroke: #000000"/>
      </g>
     </g>
     <g id="text_2">
      <!-- $\mathdefault{1}$ -->
      <g transform="translate(106.825 311.592813) scale(0.16 -0.16)">
       <defs>
        <path id="ArialMT-14" d="M 2384 0 
L 1822 0 
L 1822 3584 
Q 1619 3391 1289 3197 
Q 959 3003 697 2906 
L 697 3450 
Q 1169 3672 1522 3987 
Q 1875 4303 2022 4600 
L 2384 4600 
L 2384 0 
z
" transform="scale(0.015625)"/>
       </defs>
       <use xlink:href="#ArialMT-14" transform="translate(0 0.125)"/>
      </g>
     </g>
    </g>
    <g id="xtick_3">
     <g id="line2d_3">
      <g>
       <use xlink:href="#mb21a9d3387" x="159.59" y="290.444375" style="stroke: #000000"/>
      </g>
     </g>
     <g id="text_3">
      <!-- $\mathdefault{2}$ -->
      <g transform="translate(155.11 311.592813) scale(0.16 -0.16)">
       <defs>
        <path id="ArialMT-15" d="M 3222 541 
L 3222 0 
L 194 0 
Q 188 203 259 391 
Q 375 700 629 1000 
Q 884 1300 1366 1694 
Q 2113 2306 2375 2664 
Q 2638 3022 2638 3341 
Q 2638 3675 2398 3904 
Q 2159 4134 1775 4134 
Q 1369 4134 1125 3890 
Q 881 3647 878 3216 
L 300 3275 
Q 359 3922 746 4261 
Q 1134 4600 1788 4600 
Q 2447 4600 2831 4234 
Q 3216 3869 3216 3328 
Q 3216 3053 3103 2787 
Q 2991 2522 2730 2228 
Q 2469 1934 1863 1422 
Q 1356 997 1212 845 
Q 1069 694 975 541 
L 3222 541 
z
" transform="scale(0.015625)"/>
       </defs>
       <use xlink:href="#ArialMT-15" transform="translate(0 0.125)"/>
      </g>
     </g>
    </g>
    <g id="xtick_4">
     <g id="line2d_4">
      <g>
       <use xlink:href="#mb21a9d3387" x="207.875" y="290.444375" style="stroke: #000000"/>
      </g>
     </g>
     <g id="text_4">
      <!-- $\mathdefault{3}$ -->
      <g transform="translate(203.395 311.592813) scale(0.16 -0.16)">
       <defs>
        <path id="ArialMT-16" d="M 269 1209 
L 831 1284 
Q 928 806 1161 595 
Q 1394 384 1728 384 
Q 2125 384 2398 659 
Q 2672 934 2672 1341 
Q 2672 1728 2419 1979 
Q 2166 2231 1775 2231 
Q 1616 2231 1378 2169 
L 1441 2663 
Q 1497 2656 1531 2656 
Q 1891 2656 2178 2843 
Q 2466 3031 2466 3422 
Q 2466 3731 2256 3934 
Q 2047 4138 1716 4138 
Q 1388 4138 1169 3931 
Q 950 3725 888 3313 
L 325 3413 
Q 428 3978 793 4289 
Q 1159 4600 1703 4600 
Q 2078 4600 2393 4439 
Q 2709 4278 2876 4000 
Q 3044 3722 3044 3409 
Q 3044 3113 2884 2869 
Q 2725 2625 2413 2481 
Q 2819 2388 3044 2092 
Q 3269 1797 3269 1353 
Q 3269 753 2831 336 
Q 2394 -81 1725 -81 
Q 1122 -81 723 278 
Q 325 638 269 1209 
z
" transform="scale(0.015625)"/>
       </defs>
       <use xlink:href="#ArialMT-16" transform="translate(0 0.125)"/>
      </g>
     </g>
    </g>
    <g id="xtick_5">
     <g id="line2d_5">
      <g>
       <use xlink:href="#mb21a9d3387" x="256.16" y="290.444375" style="stroke: #000000"/>
      </g>
     </g>
     <g id="text_5">
      <!-- $\mathdefault{4}$ -->
      <g transform="translate(251.68 311.592813) scale(0.16 -0.16)">
       <defs>
        <path id="ArialMT-17" d="M 2069 0 
L 2069 1097 
L 81 1097 
L 81 1613 
L 2172 4581 
L 2631 4581 
L 2631 1613 
L 3250 1613 
L 3250 1097 
L 2631 1097 
L 2631 0 
L 2069 0 
z
M 2069 1613 
L 2069 3678 
L 634 1613 
L 2069 1613 
z
" transform="scale(0.015625)"/>
       </defs>
       <use xlink:href="#ArialMT-17" transform="translate(0 0.421875)"/>
      </g>
     </g>
    </g>
    <g id="xtick_6">
     <g id="line2d_6">
      <g>
       <use xlink:href="#mb21a9d3387" x="304.445" y="290.444375" style="stroke: #000000"/>
      </g>
     </g>
     <g id="text_6">
      <!-- $\mathdefault{5}$ -->
      <g transform="translate(299.965 311.592813) scale(0.16 -0.16)">
       <defs>
        <path id="ArialMT-18" d="M 266 1200 
L 856 1250 
Q 922 819 1161 601 
Q 1400 384 1738 384 
Q 2144 384 2425 690 
Q 2706 997 2706 1503 
Q 2706 1984 2436 2262 
Q 2166 2541 1728 2541 
Q 1456 2541 1237 2417 
Q 1019 2294 894 2097 
L 366 2166 
L 809 4519 
L 3088 4519 
L 3088 3981 
L 1259 3981 
L 1013 2750 
Q 1425 3038 1878 3038 
Q 2478 3038 2890 2622 
Q 3303 2206 3303 1553 
Q 3303 931 2941 478 
Q 2500 -78 1738 -78 
Q 1113 -78 717 272 
Q 322 622 266 1200 
z
" transform="scale(0.015625)"/>
       </defs>
       <use xlink:href="#ArialMT-18" transform="translate(0 0.390625)"/>
      </g>
     </g>
    </g>
    <g id="xtick_7">
     <g id="line2d_7">
      <g>
       <use xlink:href="#mb21a9d3387" x="352.73" y="290.444375" style="stroke: #000000"/>
      </g>
     </g>
     <g id="text_7">
      <!-- $\mathdefault{6}$ -->
      <g transform="translate(348.25 311.592813) scale(0.16 -0.16)">
       <defs>
        <path id="ArialMT-19" d="M 3184 3459 
L 2625 3416 
Q 2550 3747 2413 3897 
Q 2184 4138 1850 4138 
Q 1581 4138 1378 3988 
Q 1113 3794 959 3422 
Q 806 3050 800 2363 
Q 1003 2672 1297 2822 
Q 1591 2972 1913 2972 
Q 2475 2972 2870 2558 
Q 3266 2144 3266 1488 
Q 3266 1056 3080 686 
Q 2894 316 2569 119 
Q 2244 -78 1831 -78 
Q 1128 -78 684 439 
Q 241 956 241 2144 
Q 241 3472 731 4075 
Q 1159 4600 1884 4600 
Q 2425 4600 2770 4297 
Q 3116 3994 3184 3459 
z
M 888 1484 
Q 888 1194 1011 928 
Q 1134 663 1356 523 
Q 1578 384 1822 384 
Q 2178 384 2434 671 
Q 2691 959 2691 1453 
Q 2691 1928 2437 2201 
Q 2184 2475 1800 2475 
Q 1419 2475 1153 2201 
Q 888 1928 888 1484 
z
" transform="scale(0.015625)"/>
       </defs>
       <use xlink:href="#ArialMT-19" transform="translate(0 0.125)"/>
      </g>
     </g>
    </g>
    <g id="xtick_8">
     <g id="line2d_8">
      <g>
       <use xlink:href="#mb21a9d3387" x="401.015" y="290.444375" style="stroke: #000000"/>
      </g>
     </g>
     <g id="text_8">
      <!-- $\mathdefault{7}$ -->
      <g transform="translate(396.535 311.592813) scale(0.16 -0.16)">
       <defs>
        <path id="ArialMT-1a" d="M 303 3981 
L 303 4522 
L 3269 4522 
L 3269 4084 
Q 2831 3619 2401 2847 
Q 1972 2075 1738 1259 
Q 1569 684 1522 0 
L 944 0 
Q 953 541 1156 1306 
Q 1359 2072 1739 2783 
Q 2119 3494 2547 3981 
L 303 3981 
z
" transform="scale(0.015625)"/>
       </defs>
       <use xlink:href="#ArialMT-1a" transform="translate(0 0.34375)"/>
      </g>
     </g>
    </g>
    <g id="xtick_9">
     <g id="line2d_9">
      <g>
       <use xlink:href="#mb21a9d3387" x="449.3" y="290.444375" style="stroke: #000000"/>
      </g>
     </g>
     <g id="text_9">
      <!-- $\mathdefault{8}$ -->
      <g transform="translate(444.82 311.592813) scale(0.16 -0.16)">
       <defs>
        <path id="ArialMT-1b" d="M 1131 2484 
Q 781 2613 612 2850 
Q 444 3088 444 3419 
Q 444 3919 803 4259 
Q 1163 4600 1759 4600 
Q 2359 4600 2725 4251 
Q 3091 3903 3091 3403 
Q 3091 3084 2923 2848 
Q 2756 2613 2416 2484 
Q 2838 2347 3058 2040 
Q 3278 1734 3278 1309 
Q 3278 722 2862 322 
Q 2447 -78 1769 -78 
Q 1091 -78 675 323 
Q 259 725 259 1325 
Q 259 1772 486 2073 
Q 713 2375 1131 2484 
z
M 1019 3438 
Q 1019 3113 1228 2906 
Q 1438 2700 1772 2700 
Q 2097 2700 2305 2904 
Q 2513 3109 2513 3406 
Q 2513 3716 2298 3927 
Q 2084 4138 1766 4138 
Q 1444 4138 1231 3931 
Q 1019 3725 1019 3438 
z
M 838 1322 
Q 838 1081 952 856 
Q 1066 631 1291 507 
Q 1516 384 1775 384 
Q 2178 384 2440 643 
Q 2703 903 2703 1303 
Q 2703 1709 2433 1975 
Q 2163 2241 1756 2241 
Q 1359 2241 1098 1978 
Q 838 1716 838 1322 
z
" transform="scale(0.015625)"/>
       </defs>
       <use xlink:href="#ArialMT-1b" transform="translate(0 0.125)"/>
      </g>
     </g>
    </g>
    <g id="text_10">
     <!-- Isolation period $Q$ (days), following symptom onset -->
     <g transform="translate(76.8 330.64) scale(0.16 -0.16)">
      <defs>
       <path id="ArialMT-2c" d="M 597 0 
L 597 4581 
L 1203 4581 
L 1203 0 
L 597 0 
z
" transform="scale(0.015625)"/>
       <path id="ArialMT-56" d="M 197 991 
L 753 1078 
Q 800 744 1014 566 
Q 1228 388 1613 388 
Q 2000 388 2187 545 
Q 2375 703 2375 916 
Q 2375 1106 2209 1216 
Q 2094 1291 1634 1406 
Q 1016 1563 777 1677 
Q 538 1791 414 1992 
Q 291 2194 291 2438 
Q 291 2659 392 2848 
Q 494 3038 669 3163 
Q 800 3259 1026 3326 
Q 1253 3394 1513 3394 
Q 1903 3394 2198 3281 
Q 2494 3169 2634 2976 
Q 2775 2784 2828 2463 
L 2278 2388 
Q 2241 2644 2061 2787 
Q 1881 2931 1553 2931 
Q 1166 2931 1000 2803 
Q 834 2675 834 2503 
Q 834 2394 903 2306 
Q 972 2216 1119 2156 
Q 1203 2125 1616 2013 
Q 2213 1853 2448 1751 
Q 2684 1650 2818 1456 
Q 2953 1263 2953 975 
Q 2953 694 2789 445 
Q 2625 197 2315 61 
Q 2006 -75 1616 -75 
Q 969 -75 630 194 
Q 291 463 197 991 
z
" transform="scale(0.015625)"/>
       <path id="ArialMT-52" d="M 213 1659 
Q 213 2581 725 3025 
Q 1153 3394 1769 3394 
Q 2453 3394 2887 2945 
Q 3322 2497 3322 1706 
Q 3322 1066 3130 698 
Q 2938 331 2570 128 
Q 2203 -75 1769 -75 
Q 1072 -75 642 372 
Q 213 819 213 1659 
z
M 791 1659 
Q 791 1022 1069 705 
Q 1347 388 1769 388 
Q 2188 388 2466 706 
Q 2744 1025 2744 1678 
Q 2744 2294 2464 2611 
Q 2184 2928 1769 2928 
Q 1347 2928 1069 2612 
Q 791 2297 791 1659 
z
" transform="scale(0.015625)"/>
       <path id="ArialMT-4f" d="M 409 0 
L 409 4581 
L 972 4581 
L 972 0 
L 409 0 
z
" transform="scale(0.015625)"/>
       <path id="ArialMT-44" d="M 2588 409 
Q 2275 144 1986 34 
Q 1697 -75 1366 -75 
Q 819 -75 525 192 
Q 231 459 231 875 
Q 231 1119 342 1320 
Q 453 1522 633 1644 
Q 813 1766 1038 1828 
Q 1203 1872 1538 1913 
Q 2219 1994 2541 2106 
Q 2544 2222 2544 2253 
Q 2544 2597 2384 2738 
Q 2169 2928 1744 2928 
Q 1347 2928 1158 2789 
Q 969 2650 878 2297 
L 328 2372 
Q 403 2725 575 2942 
Q 747 3159 1072 3276 
Q 1397 3394 1825 3394 
Q 2250 3394 2515 3294 
Q 2781 3194 2906 3042 
Q 3031 2891 3081 2659 
Q 3109 2516 3109 2141 
L 3109 1391 
Q 3109 606 3145 398 
Q 3181 191 3288 0 
L 2700 0 
Q 2613 175 2588 409 
z
M 2541 1666 
Q 2234 1541 1622 1453 
Q 1275 1403 1131 1340 
Q 988 1278 909 1158 
Q 831 1038 831 891 
Q 831 666 1001 516 
Q 1172 366 1500 366 
Q 1825 366 2078 508 
Q 2331 650 2450 897 
Q 2541 1088 2541 1459 
L 2541 1666 
z
" transform="scale(0.015625)"/>
       <path id="ArialMT-57" d="M 1650 503 
L 1731 6 
Q 1494 -44 1306 -44 
Q 1000 -44 831 53 
Q 663 150 594 308 
Q 525 466 525 972 
L 525 2881 
L 113 2881 
L 113 3319 
L 525 3319 
L 525 4141 
L 1084 4478 
L 1084 3319 
L 1650 3319 
L 1650 2881 
L 1084 2881 
L 1084 941 
Q 1084 700 1114 631 
Q 1144 563 1211 522 
Q 1278 481 1403 481 
Q 1497 481 1650 503 
z
" transform="scale(0.015625)"/>
       <path id="ArialMT-4c" d="M 425 3934 
L 425 4581 
L 988 4581 
L 988 3934 
L 425 3934 
z
M 425 0 
L 425 3319 
L 988 3319 
L 988 0 
L 425 0 
z
" transform="scale(0.015625)"/>
       <path id="ArialMT-51" d="M 422 0 
L 422 3319 
L 928 3319 
L 928 2847 
Q 1294 3394 1984 3394 
Q 2284 3394 2536 3286 
Q 2788 3178 2913 3003 
Q 3038 2828 3088 2588 
Q 3119 2431 3119 2041 
L 3119 0 
L 2556 0 
L 2556 2019 
Q 2556 2363 2490 2533 
Q 2425 2703 2258 2804 
Q 2091 2906 1866 2906 
Q 1506 2906 1245 2678 
Q 984 2450 984 1813 
L 984 0 
L 422 0 
z
" transform="scale(0.015625)"/>
       <path id="ArialMT-3" transform="scale(0.015625)"/>
       <path id="ArialMT-53" d="M 422 -1272 
L 422 3319 
L 934 3319 
L 934 2888 
Q 1116 3141 1344 3267 
Q 1572 3394 1897 3394 
Q 2322 3394 2647 3175 
Q 2972 2956 3137 2557 
Q 3303 2159 3303 1684 
Q 3303 1175 3120 767 
Q 2938 359 2589 142 
Q 2241 -75 1856 -75 
Q 1575 -75 1351 44 
Q 1128 163 984 344 
L 984 -1272 
L 422 -1272 
z
M 931 1641 
Q 931 1000 1190 694 
Q 1450 388 1819 388 
Q 2194 388 2461 705 
Q 2728 1022 2728 1688 
Q 2728 2322 2467 2637 
Q 2206 2953 1844 2953 
Q 1484 2953 1207 2617 
Q 931 2281 931 1641 
z
" transform="scale(0.015625)"/>
       <path id="ArialMT-48" d="M 2694 1069 
L 3275 997 
Q 3138 488 2766 206 
Q 2394 -75 1816 -75 
Q 1088 -75 661 373 
Q 234 822 234 1631 
Q 234 2469 665 2931 
Q 1097 3394 1784 3394 
Q 2450 3394 2872 2941 
Q 3294 2488 3294 1666 
Q 3294 1616 3291 1516 
L 816 1516 
Q 847 969 1125 678 
Q 1403 388 1819 388 
Q 2128 388 2347 550 
Q 2566 713 2694 1069 
z
M 847 1978 
L 2700 1978 
Q 2663 2397 2488 2606 
Q 2219 2931 1791 2931 
Q 1403 2931 1139 2672 
Q 875 2413 847 1978 
z
" transform="scale(0.015625)"/>
       <path id="ArialMT-55" d="M 416 0 
L 416 3319 
L 922 3319 
L 922 2816 
Q 1116 3169 1280 3281 
Q 1444 3394 1641 3394 
Q 1925 3394 2219 3213 
L 2025 2691 
Q 1819 2813 1613 2813 
Q 1428 2813 1281 2702 
Q 1134 2591 1072 2394 
Q 978 2094 978 1738 
L 978 0 
L 416 0 
z
" transform="scale(0.015625)"/>
       <path id="ArialMT-47" d="M 2575 0 
L 2575 419 
Q 2259 -75 1647 -75 
Q 1250 -75 917 144 
Q 584 363 401 755 
Q 219 1147 219 1656 
Q 219 2153 384 2558 
Q 550 2963 881 3178 
Q 1213 3394 1622 3394 
Q 1922 3394 2156 3267 
Q 2391 3141 2538 2938 
L 2538 4581 
L 3097 4581 
L 3097 0 
L 2575 0 
z
M 797 1656 
Q 797 1019 1065 703 
Q 1334 388 1700 388 
Q 2069 388 2326 689 
Q 2584 991 2584 1609 
Q 2584 2291 2321 2609 
Q 2059 2928 1675 2928 
Q 1300 2928 1048 2622 
Q 797 2316 797 1656 
z
" transform="scale(0.015625)"/>
       <path id="Cmmi10-3c" d="M 1947 -141 
Q 1466 -141 1094 79 
Q 722 300 520 692 
Q 319 1084 319 1563 
Q 319 2259 714 2950 
Q 1109 3641 1756 4077 
Q 2403 4513 3109 4513 
Q 3475 4513 3778 4381 
Q 4081 4250 4290 4017 
Q 4500 3784 4614 3471 
Q 4728 3159 4728 2791 
Q 4728 2366 4581 1936 
Q 4434 1506 4171 1136 
Q 3909 766 3559 484 
Q 3209 203 2809 38 
Q 2850 -256 2934 -425 
Q 3019 -594 3256 -594 
Q 3506 -594 3726 -412 
Q 3947 -231 4006 13 
Q 4019 72 4078 72 
Q 4147 72 4147 -13 
Q 4100 -219 4008 -430 
Q 3916 -641 3786 -823 
Q 3656 -1006 3478 -1123 
Q 3300 -1241 3084 -1241 
Q 2547 -1241 2547 -550 
Q 2547 -509 2562 -332 
Q 2578 -156 2578 -44 
Q 2269 -141 1947 -141 
z
M 1709 300 
Q 1709 44 1991 44 
Q 2275 44 2591 184 
L 2591 244 
Q 2591 503 2509 648 
Q 2428 794 2194 794 
Q 2078 794 1964 723 
Q 1850 653 1779 539 
Q 1709 425 1709 300 
z
M 1544 288 
Q 1544 456 1637 612 
Q 1731 769 1881 864 
Q 2031 959 2203 959 
Q 2481 959 2607 771 
Q 2734 584 2778 281 
Q 3188 525 3500 978 
Q 3813 1431 3977 1973 
Q 4141 2516 4141 3003 
Q 4141 3356 4023 3656 
Q 3906 3956 3664 4140 
Q 3422 4325 3066 4325 
Q 2722 4325 2403 4156 
Q 2084 3988 1813 3706 
Q 1550 3434 1342 3032 
Q 1134 2631 1021 2193 
Q 909 1756 909 1356 
Q 909 947 1068 612 
Q 1228 278 1569 128 
Q 1544 194 1544 288 
z
" transform="scale(0.015625)"/>
       <path id="ArialMT-b" d="M 1497 -1347 
Q 1031 -759 709 28 
Q 388 816 388 1659 
Q 388 2403 628 3084 
Q 909 3875 1497 4659 
L 1900 4659 
Q 1522 4009 1400 3731 
Q 1209 3300 1100 2831 
Q 966 2247 966 1656 
Q 966 153 1900 -1347 
L 1497 -1347 
z
" transform="scale(0.015625)"/>
       <path id="ArialMT-5c" d="M 397 -1278 
L 334 -750 
Q 519 -800 656 -800 
Q 844 -800 956 -737 
Q 1069 -675 1141 -563 
Q 1194 -478 1313 -144 
Q 1328 -97 1363 -6 
L 103 3319 
L 709 3319 
L 1400 1397 
Q 1534 1031 1641 628 
Q 1738 1016 1872 1384 
L 2581 3319 
L 3144 3319 
L 1881 -56 
Q 1678 -603 1566 -809 
Q 1416 -1088 1222 -1217 
Q 1028 -1347 759 -1347 
Q 597 -1347 397 -1278 
z
" transform="scale(0.015625)"/>
       <path id="ArialMT-c" d="M 791 -1347 
L 388 -1347 
Q 1322 153 1322 1656 
Q 1322 2244 1188 2822 
Q 1081 3291 891 3722 
Q 769 4003 388 4659 
L 791 4659 
Q 1378 3875 1659 3084 
Q 1900 2403 1900 1659 
Q 1900 816 1576 28 
Q 1253 -759 791 -1347 
z
" transform="scale(0.015625)"/>
       <path id="ArialMT-f" d="M 569 0 
L 569 641 
L 1209 641 
L 1209 0 
Q 1209 -353 1084 -570 
Q 959 -788 688 -906 
L 531 -666 
Q 709 -588 793 -436 
Q 878 -284 888 0 
L 569 0 
z
" transform="scale(0.015625)"/>
       <path id="ArialMT-49" d="M 556 0 
L 556 2881 
L 59 2881 
L 59 3319 
L 556 3319 
L 556 3672 
Q 556 4006 616 4169 
Q 697 4388 901 4523 
Q 1106 4659 1475 4659 
Q 1713 4659 2000 4603 
L 1916 4113 
Q 1741 4144 1584 4144 
Q 1328 4144 1222 4034 
Q 1116 3925 1116 3625 
L 1116 3319 
L 1763 3319 
L 1763 2881 
L 1116 2881 
L 1116 0 
L 556 0 
z
" transform="scale(0.015625)"/>
       <path id="ArialMT-5a" d="M 1034 0 
L 19 3319 
L 600 3319 
L 1128 1403 
L 1325 691 
Q 1338 744 1497 1375 
L 2025 3319 
L 2603 3319 
L 3100 1394 
L 3266 759 
L 3456 1400 
L 4025 3319 
L 4572 3319 
L 3534 0 
L 2950 0 
L 2422 1988 
L 2294 2553 
L 1622 0 
L 1034 0 
z
" transform="scale(0.015625)"/>
       <path id="ArialMT-4a" d="M 319 -275 
L 866 -356 
Q 900 -609 1056 -725 
Q 1266 -881 1628 -881 
Q 2019 -881 2231 -725 
Q 2444 -569 2519 -288 
Q 2563 -116 2559 434 
Q 2191 0 1641 0 
Q 956 0 581 494 
Q 206 988 206 1678 
Q 206 2153 378 2554 
Q 550 2956 876 3175 
Q 1203 3394 1644 3394 
Q 2231 3394 2613 2919 
L 2613 3319 
L 3131 3319 
L 3131 450 
Q 3131 -325 2973 -648 
Q 2816 -972 2473 -1159 
Q 2131 -1347 1631 -1347 
Q 1038 -1347 672 -1080 
Q 306 -813 319 -275 
z
M 784 1719 
Q 784 1066 1043 766 
Q 1303 466 1694 466 
Q 2081 466 2343 764 
Q 2606 1063 2606 1700 
Q 2606 2309 2336 2618 
Q 2066 2928 1684 2928 
Q 1309 2928 1046 2623 
Q 784 2319 784 1719 
z
" transform="scale(0.015625)"/>
       <path id="ArialMT-50" d="M 422 0 
L 422 3319 
L 925 3319 
L 925 2853 
Q 1081 3097 1340 3245 
Q 1600 3394 1931 3394 
Q 2300 3394 2536 3241 
Q 2772 3088 2869 2813 
Q 3263 3394 3894 3394 
Q 4388 3394 4653 3120 
Q 4919 2847 4919 2278 
L 4919 0 
L 4359 0 
L 4359 2091 
Q 4359 2428 4304 2576 
Q 4250 2725 4106 2815 
Q 3963 2906 3769 2906 
Q 3419 2906 3187 2673 
Q 2956 2441 2956 1928 
L 2956 0 
L 2394 0 
L 2394 2156 
Q 2394 2531 2256 2718 
Q 2119 2906 1806 2906 
Q 1569 2906 1367 2781 
Q 1166 2656 1075 2415 
Q 984 2175 984 1722 
L 984 0 
L 422 0 
z
" transform="scale(0.015625)"/>
      </defs>
      <use xlink:href="#ArialMT-2c" transform="translate(0 0.203125)"/>
      <use xlink:href="#ArialMT-56" transform="translate(27.783203 0.203125)"/>
      <use xlink:href="#ArialMT-52" transform="translate(77.783203 0.203125)"/>
      <use xlink:href="#ArialMT-4f" transform="translate(133.398438 0.203125)"/>
      <use xlink:href="#ArialMT-44" transform="translate(155.615234 0.203125)"/>
      <use xlink:href="#ArialMT-57" transform="translate(211.230469 0.203125)"/>
      <use xlink:href="#ArialMT-4c" transform="translate(239.013672 0.203125)"/>
      <use xlink:href="#ArialMT-52" transform="translate(261.230469 0.203125)"/>
      <use xlink:href="#ArialMT-51" transform="translate(316.845703 0.203125)"/>
      <use xlink:href="#ArialMT-3" transform="translate(372.460938 0.203125)"/>
      <use xlink:href="#ArialMT-53" transform="translate(400.244141 0.203125)"/>
      <use xlink:href="#ArialMT-48" transform="translate(455.859375 0.203125)"/>
      <use xlink:href="#ArialMT-55" transform="translate(511.474609 0.203125)"/>
      <use xlink:href="#ArialMT-4c" transform="translate(544.775391 0.203125)"/>
      <use xlink:href="#ArialMT-52" transform="translate(566.992188 0.203125)"/>
      <use xlink:href="#ArialMT-47" transform="translate(622.607422 0.203125)"/>
      <use xlink:href="#ArialMT-3" transform="translate(678.222656 0.203125)"/>
      <use xlink:href="#Cmmi10-3c" transform="translate(706.005859 0.203125)"/>
      <use xlink:href="#ArialMT-3" transform="translate(785.009766 0.203125)"/>
      <use xlink:href="#ArialMT-b" transform="translate(812.792969 0.203125)"/>
      <use xlink:href="#ArialMT-47" transform="translate(846.09375 0.203125)"/>
      <use xlink:href="#ArialMT-44" transform="translate(901.708984 0.203125)"/>
      <use xlink:href="#ArialMT-5c" transform="translate(957.324219 0.203125)"/>
      <use xlink:href="#ArialMT-56" transform="translate(1007.324219 0.203125)"/>
      <use xlink:href="#ArialMT-c" transform="translate(1057.324219 0.203125)"/>
      <use xlink:href="#ArialMT-f" transform="translate(1090.625 0.203125)"/>
      <use xlink:href="#ArialMT-3" transform="translate(1118.408203 0.203125)"/>
      <use xlink:href="#ArialMT-49" transform="translate(1146.191406 0.203125)"/>
      <use xlink:href="#ArialMT-52" transform="translate(1173.974609 0.203125)"/>
      <use xlink:href="#ArialMT-4f" transform="translate(1229.589844 0.203125)"/>
      <use xlink:href="#ArialMT-4f" transform="translate(1251.806641 0.203125)"/>
      <use xlink:href="#ArialMT-52" transform="translate(1274.023438 0.203125)"/>
      <use xlink:href="#ArialMT-5a" transform="translate(1329.638672 0.203125)"/>
      <use xlink:href="#ArialMT-4c" transform="translate(1401.855469 0.203125)"/>
      <use xlink:href="#ArialMT-51" transform="translate(1424.072266 0.203125)"/>
      <use xlink:href="#ArialMT-4a" transform="translate(1479.6875 0.203125)"/>
      <use xlink:href="#ArialMT-3" transform="translate(1535.302734 0.203125)"/>
      <use xlink:href="#ArialMT-56" transform="translate(1563.085938 0.203125)"/>
      <use xlink:href="#ArialMT-5c" transform="translate(1613.085938 0.203125)"/>
      <use xlink:href="#ArialMT-50" transform="translate(1663.085938 0.203125)"/>
      <use xlink:href="#ArialMT-53" transform="translate(1746.386719 0.203125)"/>
      <use xlink:href="#ArialMT-57" transform="translate(1802.001953 0.203125)"/>
      <use xlink:href="#ArialMT-52" transform="translate(1829.785156 0.203125)"/>
      <use xlink:href="#ArialMT-50" transform="translate(1885.400391 0.203125)"/>
      <use xlink:href="#ArialMT-3" transform="translate(1968.701172 0.203125)"/>
      <use xlink:href="#ArialMT-52" transform="translate(1996.484375 0.203125)"/>
      <use xlink:href="#ArialMT-51" transform="translate(2052.099609 0.203125)"/>
      <use xlink:href="#ArialMT-56" transform="translate(2107.714844 0.203125)"/>
      <use xlink:href="#ArialMT-48" transform="translate(2157.714844 0.203125)"/>
      <use xlink:href="#ArialMT-57" transform="translate(2213.330078 0.203125)"/>
     </g>
    </g>
   </g>
   <g id="matplotlib.axis_2">
    <g id="ytick_1">
     <g id="line2d_10">
      <defs>
       <path id="mbb84d73f5a" d="M 0 0 
L -6 0 
" style="stroke: #000000"/>
      </defs>
      <g>
       <use xlink:href="#mbb84d73f5a" x="63.02" y="290.444375" style="stroke: #000000"/>
      </g>
     </g>
     <g id="text_11">
      <!-- $\mathdefault{0}$ -->
      <g style="fill: #ca6f1e" transform="translate(44.56 296.268594) scale(0.16 -0.16)">
       <use xlink:href="#ArialMT-13" transform="translate(0 0.125)"/>
      </g>
     </g>
    </g>
    <g id="ytick_2">
     <g id="line2d_11">
      <g>
       <use xlink:href="#mbb84d73f5a" x="63.02" y="235.680344" style="stroke: #000000"/>
      </g>
     </g>
     <g id="text_12">
      <!-- $\mathdefault{20}$ -->
      <g style="fill: #ca6f1e" transform="translate(35.6 241.504563) scale(0.16 -0.16)">
       <use xlink:href="#ArialMT-15" transform="translate(0 0.125)"/>
       <use xlink:href="#ArialMT-13" transform="translate(55.615234 0.125)"/>
      </g>
     </g>
    </g>
    <g id="ytick_3">
     <g id="line2d_12">
      <g>
       <use xlink:href="#mbb84d73f5a" x="63.02" y="180.916313" style="stroke: #000000"/>
      </g>
     </g>
     <g id="text_13">
      <!-- $\mathdefault{40}$ -->
      <g style="fill: #ca6f1e" transform="translate(35.6 186.740531) scale(0.16 -0.16)">
       <use xlink:href="#ArialMT-17" transform="translate(0 0.125)"/>
       <use xlink:href="#ArialMT-13" transform="translate(55.615234 0.125)"/>
      </g>
     </g>
    </g>
    <g id="ytick_4">
     <g id="line2d_13">
      <g>
       <use xlink:href="#mbb84d73f5a" x="63.02" y="126.152281" style="stroke: #000000"/>
      </g>
     </g>
     <g id="text_14">
      <!-- $\mathdefault{60}$ -->
      <g style="fill: #ca6f1e" transform="translate(35.6 131.9765) scale(0.16 -0.16)">
       <use xlink:href="#ArialMT-19" transform="translate(0 0.125)"/>
       <use xlink:href="#ArialMT-13" transform="translate(55.615234 0.125)"/>
      </g>
     </g>
    </g>
    <g id="ytick_5">
     <g id="line2d_14">
      <g>
       <use xlink:href="#mbb84d73f5a" x="63.02" y="71.38825" style="stroke: #000000"/>
      </g>
     </g>
     <g id="text_15">
      <!-- $\mathdefault{80}$ -->
      <g style="fill: #ca6f1e" transform="translate(35.6 77.212469) scale(0.16 -0.16)">
       <use xlink:href="#ArialMT-1b" transform="translate(0 0.125)"/>
       <use xlink:href="#ArialMT-13" transform="translate(55.615234 0.125)"/>
      </g>
     </g>
    </g>
    <g id="ytick_6">
     <g id="line2d_15">
      <g>
       <use xlink:href="#mbb84d73f5a" x="63.02" y="16.624219" style="stroke: #000000"/>
      </g>
     </g>
     <g id="text_16">
      <!-- $\mathdefault{100}$ -->
      <g style="fill: #ca6f1e" transform="translate(26.8 22.448438) scale(0.16 -0.16)">
       <use xlink:href="#ArialMT-14" transform="translate(0 0.125)"/>
       <use xlink:href="#ArialMT-13" transform="translate(55.615234 0.125)"/>
       <use xlink:href="#ArialMT-13" transform="translate(111.230469 0.125)"/>
      </g>
     </g>
    </g>
    <g id="ytick_7">
     <g id="line2d_16">
      <defs>
       <path id="m9b93ed4dd7" d="M 0 0 
L -3 0 
" style="stroke: #000000"/>
      </defs>
      <g>
       <use xlink:href="#m9b93ed4dd7" x="63.02" y="276.753367" style="stroke: #000000"/>
      </g>
     </g>
    </g>
    <g id="ytick_8">
     <g id="line2d_17">
      <g>
       <use xlink:href="#m9b93ed4dd7" x="63.02" y="263.062359" style="stroke: #000000"/>
      </g>
     </g>
    </g>
    <g id="ytick_9">
     <g id="line2d_18">
      <g>
       <use xlink:href="#m9b93ed4dd7" x="63.02" y="249.371352" style="stroke: #000000"/>
      </g>
     </g>
    </g>
    <g id="ytick_10">
     <g id="line2d_19">
      <g>
       <use xlink:href="#m9b93ed4dd7" x="63.02" y="221.989336" style="stroke: #000000"/>
      </g>
     </g>
    </g>
    <g id="ytick_11">
     <g id="line2d_20">
      <g>
       <use xlink:href="#m9b93ed4dd7" x="63.02" y="208.298328" style="stroke: #000000"/>
      </g>
     </g>
    </g>
    <g id="ytick_12">
     <g id="line2d_21">
      <g>
       <use xlink:href="#m9b93ed4dd7" x="63.02" y="194.60732" style="stroke: #000000"/>
      </g>
     </g>
    </g>
    <g id="ytick_13">
     <g id="line2d_22">
      <g>
       <use xlink:href="#m9b93ed4dd7" x="63.02" y="167.225305" style="stroke: #000000"/>
      </g>
     </g>
    </g>
    <g id="ytick_14">
     <g id="line2d_23">
      <g>
       <use xlink:href="#m9b93ed4dd7" x="63.02" y="153.534297" style="stroke: #000000"/>
      </g>
     </g>
    </g>
    <g id="ytick_15">
     <g id="line2d_24">
      <g>
       <use xlink:href="#m9b93ed4dd7" x="63.02" y="139.843289" style="stroke: #000000"/>
      </g>
     </g>
    </g>
    <g id="ytick_16">
     <g id="line2d_25">
      <g>
       <use xlink:href="#m9b93ed4dd7" x="63.02" y="112.461273" style="stroke: #000000"/>
      </g>
     </g>
    </g>
    <g id="ytick_17">
     <g id="line2d_26">
      <g>
       <use xlink:href="#m9b93ed4dd7" x="63.02" y="98.770266" style="stroke: #000000"/>
      </g>
     </g>
    </g>
    <g id="ytick_18">
     <g id="line2d_27">
      <g>
       <use xlink:href="#m9b93ed4dd7" x="63.02" y="85.079258" style="stroke: #000000"/>
      </g>
     </g>
    </g>
    <g id="ytick_19">
     <g id="line2d_28">
      <g>
       <use xlink:href="#m9b93ed4dd7" x="63.02" y="57.697242" style="stroke: #000000"/>
      </g>
     </g>
    </g>
    <g id="ytick_20">
     <g id="line2d_29">
      <g>
       <use xlink:href="#m9b93ed4dd7" x="63.02" y="44.006234" style="stroke: #000000"/>
      </g>
     </g>
    </g>
    <g id="ytick_21">
     <g id="line2d_30">
      <g>
       <use xlink:href="#m9b93ed4dd7" x="63.02" y="30.315227" style="stroke: #000000"/>
      </g>
     </g>
    </g>
    <g id="text_17">
     <!-- Eq. 6.3: $P(\geq 1\ \mathrm{transmission})$ (%) -->
     <g style="fill: #ca6f1e" transform="translate(19.8 240.234297) rotate(-90) scale(0.12 -0.12)">
      <defs>
       <path id="ArialMT-28" d="M 506 0 
L 506 4581 
L 3819 4581 
L 3819 4041 
L 1113 4041 
L 1113 2638 
L 3647 2638 
L 3647 2100 
L 1113 2100 
L 1113 541 
L 3925 541 
L 3925 0 
L 506 0 
z
" transform="scale(0.015625)"/>
       <path id="ArialMT-54" d="M 2538 -1272 
L 2538 353 
Q 2406 169 2170 47 
Q 1934 -75 1669 -75 
Q 1078 -75 651 397 
Q 225 869 225 1691 
Q 225 2191 398 2587 
Q 572 2984 901 3189 
Q 1231 3394 1625 3394 
Q 2241 3394 2594 2875 
L 2594 3319 
L 3100 3319 
L 3100 -1272 
L 2538 -1272 
z
M 803 1669 
Q 803 1028 1072 708 
Q 1341 388 1716 388 
Q 2075 388 2334 692 
Q 2594 997 2594 1619 
Q 2594 2281 2320 2615 
Q 2047 2950 1678 2950 
Q 1313 2950 1058 2639 
Q 803 2328 803 1669 
z
" transform="scale(0.015625)"/>
       <path id="ArialMT-11" d="M 581 0 
L 581 641 
L 1222 641 
L 1222 0 
L 581 0 
z
" transform="scale(0.015625)"/>
       <path id="ArialMT-1d" d="M 578 2678 
L 578 3319 
L 1219 3319 
L 1219 2678 
L 578 2678 
z
M 578 0 
L 578 641 
L 1219 641 
L 1219 0 
L 578 0 
z
" transform="scale(0.015625)"/>
       <path id="Cmmi10-68" d="M 313 0 
Q 250 0 250 84 
Q 253 100 262 139 
Q 272 178 289 201 
Q 306 225 331 225 
Q 722 225 878 269 
Q 959 297 997 441 
L 1875 3956 
Q 1888 4019 1888 4044 
Q 1888 4113 1813 4122 
Q 1691 4147 1350 4147 
Q 1288 4147 1288 4231 
Q 1291 4247 1300 4286 
Q 1309 4325 1326 4348 
Q 1344 4372 1369 4372 
L 3578 4372 
Q 3881 4372 4165 4264 
Q 4450 4156 4631 3934 
Q 4813 3713 4813 3397 
Q 4813 2991 4527 2672 
Q 4241 2353 3814 2175 
Q 3388 1997 2988 1997 
L 1947 1997 
L 1556 416 
Q 1544 353 1544 325 
Q 1544 300 1551 283 
Q 1559 266 1573 261 
Q 1588 256 1619 250 
Q 1741 225 2081 225 
Q 2144 225 2144 141 
Q 2122 50 2109 25 
Q 2097 0 2034 0 
L 313 0 
z
M 1978 2188 
L 2875 2188 
Q 3497 2188 3822 2522 
Q 3988 2688 4092 3000 
Q 4197 3313 4197 3566 
Q 4197 3881 3956 4014 
Q 3716 4147 3359 4147 
L 2747 4147 
Q 2572 4147 2515 4117 
Q 2459 4088 2413 3928 
L 1978 2188 
z
" transform="scale(0.015625)"/>
       <path id="Cmr10-77" d="M 1984 -1588 
Q 1628 -1306 1370 -942 
Q 1113 -578 948 -165 
Q 784 247 703 697 
Q 622 1147 622 1600 
Q 622 2059 703 2509 
Q 784 2959 951 3375 
Q 1119 3791 1378 4153 
Q 1638 4516 1984 4788 
Q 1984 4800 2016 4800 
L 2075 4800 
Q 2094 4800 2109 4783 
Q 2125 4766 2125 4744 
Q 2125 4716 2113 4703 
Q 1800 4397 1592 4047 
Q 1384 3697 1257 3301 
Q 1131 2906 1075 2482 
Q 1019 2059 1019 1600 
Q 1019 -434 2106 -1491 
Q 2125 -1509 2125 -1544 
Q 2125 -1559 2108 -1579 
Q 2091 -1600 2075 -1600 
L 2016 -1600 
Q 1984 -1600 1984 -1588 
z
" transform="scale(0.015625)"/>
       <path id="Cmsy10-1d" d="M 653 -878 
Q 600 -878 565 -837 
Q 531 -797 531 -750 
Q 531 -697 565 -659 
Q 600 -622 653 -622 
L 4325 -622 
Q 4375 -622 4408 -659 
Q 4441 -697 4441 -750 
Q 4441 -797 4408 -837 
Q 4375 -878 4325 -878 
L 653 -878 
z
M 531 494 
Q 531 572 616 616 
L 4013 2222 
L 594 3834 
Q 531 3863 531 3944 
Q 531 3991 568 4031 
Q 606 4072 659 4072 
Q 691 4072 709 4063 
L 4384 2328 
Q 4441 2300 4441 2222 
Q 4441 2144 4366 2100 
L 709 378 
Q 691 366 659 366 
Q 606 366 568 403 
Q 531 441 531 494 
z
" transform="scale(0.015625)"/>
       <path id="Cmr10-64" d="M 594 0 
L 594 225 
Q 1394 225 1394 428 
L 1394 3788 
Q 1063 3628 556 3628 
L 556 3853 
Q 1341 3853 1741 4263 
L 1831 4263 
Q 1853 4263 1873 4245 
Q 1894 4228 1894 4206 
L 1894 428 
Q 1894 225 2694 225 
L 2694 0 
L 594 0 
z
" transform="scale(0.015625)"/>
       <path id="Cmr10-1c" d="M 653 769 
L 653 2534 
L 122 2534 
L 122 2700 
Q 541 2700 737 3090 
Q 934 3481 934 3938 
L 1119 3938 
L 1119 2759 
L 2022 2759 
L 2022 2534 
L 1119 2534 
L 1119 781 
Q 1119 516 1208 316 
Q 1297 116 1528 116 
Q 1747 116 1844 327 
Q 1941 538 1941 781 
L 1941 1159 
L 2125 1159 
L 2125 769 
Q 2125 569 2051 373 
Q 1978 178 1834 53 
Q 1691 -72 1484 -72 
Q 1100 -72 876 158 
Q 653 388 653 769 
z
" transform="scale(0.015625)"/>
       <path id="Cmr10-84" d="M 166 0 
L 166 225 
Q 384 225 525 259 
Q 666 294 666 428 
L 666 2175 
Q 666 2347 614 2423 
Q 563 2500 466 2517 
Q 369 2534 166 2534 
L 166 2759 
L 1081 2828 
L 1081 2203 
Q 1184 2481 1375 2654 
Q 1566 2828 1838 2828 
Q 2028 2828 2178 2715 
Q 2328 2603 2328 2419 
Q 2328 2303 2245 2217 
Q 2163 2131 2041 2131 
Q 1922 2131 1837 2215 
Q 1753 2300 1753 2419 
Q 1753 2591 1875 2663 
L 1838 2663 
Q 1578 2663 1414 2475 
Q 1250 2288 1181 2009 
Q 1113 1731 1113 1478 
L 1113 428 
Q 1113 225 1734 225 
L 1734 0 
L 166 0 
z
" transform="scale(0.015625)"/>
       <path id="Cmr10-73" d="M 256 628 
Q 256 1009 556 1248 
Q 856 1488 1276 1586 
Q 1697 1684 2075 1684 
L 2075 1947 
Q 2075 2131 1994 2304 
Q 1913 2478 1759 2589 
Q 1606 2700 1422 2700 
Q 997 2700 775 2509 
Q 897 2509 976 2417 
Q 1056 2325 1056 2203 
Q 1056 2075 965 1984 
Q 875 1894 750 1894 
Q 622 1894 531 1984 
Q 441 2075 441 2203 
Q 441 2541 747 2705 
Q 1053 2869 1422 2869 
Q 1681 2869 1943 2758 
Q 2206 2647 2373 2440 
Q 2541 2234 2541 1959 
L 2541 519 
Q 2541 394 2594 289 
Q 2647 184 2759 184 
Q 2866 184 2917 290 
Q 2969 397 2969 519 
L 2969 928 
L 3156 928 
L 3156 519 
Q 3156 375 3081 245 
Q 3006 116 2879 39 
Q 2753 -38 2606 -38 
Q 2419 -38 2283 107 
Q 2147 253 2131 453 
Q 2013 213 1781 70 
Q 1550 -72 1288 -72 
Q 1044 -72 808 0 
Q 572 72 414 226 
Q 256 381 256 628 
z
M 775 628 
Q 775 403 940 250 
Q 1106 97 1331 97 
Q 1538 97 1706 200 
Q 1875 303 1975 481 
Q 2075 659 2075 856 
L 2075 1522 
Q 1784 1522 1479 1426 
Q 1175 1331 975 1128 
Q 775 925 775 628 
z
" transform="scale(0.015625)"/>
       <path id="Cmr10-74" d="M 191 0 
L 191 225 
Q 409 225 550 259 
Q 691 294 691 428 
L 691 2175 
Q 691 2347 639 2423 
Q 588 2500 491 2517 
Q 394 2534 191 2534 
L 191 2759 
L 1119 2828 
L 1119 2203 
Q 1247 2478 1498 2653 
Q 1750 2828 2047 2828 
Q 2491 2828 2714 2615 
Q 2938 2403 2938 1966 
L 2938 428 
Q 2938 294 3078 259 
Q 3219 225 3438 225 
L 3438 0 
L 1972 0 
L 1972 225 
Q 2191 225 2331 259 
Q 2472 294 2472 428 
L 2472 1947 
Q 2472 2259 2381 2461 
Q 2291 2663 2009 2663 
Q 1638 2663 1398 2366 
Q 1159 2069 1159 1691 
L 1159 428 
Q 1159 294 1300 259 
Q 1441 225 1656 225 
L 1656 0 
L 191 0 
z
" transform="scale(0.015625)"/>
       <path id="Cmr10-52" d="M 213 -19 
L 213 1025 
Q 213 1075 269 1075 
L 347 1075 
Q 384 1075 397 1025 
Q 575 97 1259 97 
Q 1563 97 1767 234 
Q 1972 372 1972 659 
Q 1972 866 1812 1011 
Q 1653 1156 1434 1209 
L 1006 1294 
Q 791 1341 614 1437 
Q 438 1534 325 1695 
Q 213 1856 213 2069 
Q 213 2350 361 2529 
Q 509 2709 746 2789 
Q 984 2869 1259 2869 
Q 1588 2869 1831 2694 
L 2016 2853 
Q 2016 2869 2047 2869 
L 2094 2869 
Q 2113 2869 2128 2851 
Q 2144 2834 2144 2816 
L 2144 1978 
Q 2144 1919 2094 1919 
L 2016 1919 
Q 1959 1919 1959 1978 
Q 1959 2313 1773 2516 
Q 1588 2719 1253 2719 
Q 966 2719 755 2612 
Q 544 2506 544 2247 
Q 544 2069 695 1955 
Q 847 1841 1050 1791 
L 1484 1709 
Q 1703 1659 1892 1540 
Q 2081 1422 2192 1240 
Q 2303 1059 2303 831 
Q 2303 600 2223 429 
Q 2144 259 2001 146 
Q 1859 34 1665 -19 
Q 1472 -72 1259 -72 
Q 859 -72 575 197 
L 341 -56 
Q 341 -72 306 -72 
L 269 -72 
Q 213 -72 213 -19 
z
" transform="scale(0.015625)"/>
       <path id="Cmr10-38" d="M 191 0 
L 191 225 
Q 409 225 550 259 
Q 691 294 691 428 
L 691 2175 
Q 691 2347 639 2423 
Q 588 2500 491 2517 
Q 394 2534 191 2534 
L 191 2759 
L 1119 2828 
L 1119 2203 
Q 1247 2478 1498 2653 
Q 1750 2828 2047 2828 
Q 2784 2828 2913 2228 
Q 3041 2497 3287 2662 
Q 3534 2828 3828 2828 
Q 4119 2828 4317 2734 
Q 4516 2641 4616 2448 
Q 4716 2256 4716 1966 
L 4716 428 
Q 4716 294 4858 259 
Q 5000 225 5216 225 
L 5216 0 
L 3750 0 
L 3750 225 
Q 3969 225 4109 259 
Q 4250 294 4250 428 
L 4250 1947 
Q 4250 2269 4159 2466 
Q 4069 2663 3788 2663 
Q 3419 2663 3178 2366 
Q 2938 2069 2938 1691 
L 2938 428 
Q 2938 294 3078 259 
Q 3219 225 3438 225 
L 3438 0 
L 1972 0 
L 1972 225 
Q 2191 225 2331 259 
Q 2472 294 2472 428 
L 2472 1947 
Q 2472 2259 2381 2461 
Q 2291 2663 2009 2663 
Q 1638 2663 1398 2366 
Q 1159 2069 1159 1691 
L 1159 428 
Q 1159 294 1300 259 
Q 1441 225 1656 225 
L 1656 0 
L 191 0 
z
" transform="scale(0.015625)"/>
       <path id="Cmr10-24" d="M 197 0 
L 197 225 
Q 416 225 556 259 
Q 697 294 697 428 
L 697 2175 
Q 697 2422 601 2478 
Q 506 2534 225 2534 
L 225 2759 
L 1147 2828 
L 1147 428 
Q 1147 294 1269 259 
Q 1391 225 1594 225 
L 1594 0 
L 197 0 
z
M 469 3928 
Q 469 4069 575 4175 
Q 681 4281 819 4281 
Q 909 4281 993 4234 
Q 1078 4188 1125 4103 
Q 1172 4019 1172 3928 
Q 1172 3791 1065 3684 
Q 959 3578 819 3578 
Q 681 3578 575 3684 
Q 469 3791 469 3928 
z
" transform="scale(0.015625)"/>
       <path id="Cmr10-42" d="M 1600 -72 
Q 1216 -72 887 123 
Q 559 319 368 647 
Q 178 975 178 1363 
Q 178 1656 283 1928 
Q 388 2200 583 2414 
Q 778 2628 1037 2748 
Q 1297 2869 1600 2869 
Q 1994 2869 2317 2661 
Q 2641 2453 2828 2104 
Q 3016 1756 3016 1363 
Q 3016 978 2825 648 
Q 2634 319 2307 123 
Q 1981 -72 1600 -72 
z
M 1600 116 
Q 2113 116 2284 487 
Q 2456 859 2456 1434 
Q 2456 1756 2422 1967 
Q 2388 2178 2272 2350 
Q 2200 2456 2089 2536 
Q 1978 2616 1854 2658 
Q 1731 2700 1600 2700 
Q 1400 2700 1220 2609 
Q 1041 2519 922 2350 
Q 803 2169 770 1951 
Q 738 1734 738 1434 
Q 738 1075 800 789 
Q 863 503 1052 309 
Q 1241 116 1600 116 
z
" transform="scale(0.015625)"/>
       <path id="Cmr10-44" d="M 416 -1600 
Q 359 -1600 359 -1544 
Q 359 -1516 372 -1503 
Q 1466 -434 1466 1600 
Q 1466 3634 384 4691 
Q 359 4706 359 4744 
Q 359 4766 376 4783 
Q 394 4800 416 4800 
L 475 4800 
Q 494 4800 506 4788 
Q 966 4425 1272 3906 
Q 1578 3388 1720 2800 
Q 1863 2213 1863 1600 
Q 1863 1147 1786 708 
Q 1709 269 1542 -157 
Q 1375 -584 1119 -945 
Q 863 -1306 506 -1588 
Q 494 -1600 475 -1600 
L 416 -1600 
z
" transform="scale(0.015625)"/>
       <path id="ArialMT-8" d="M 372 3481 
Q 372 3972 619 4315 
Q 866 4659 1334 4659 
Q 1766 4659 2048 4351 
Q 2331 4044 2331 3447 
Q 2331 2866 2045 2552 
Q 1759 2238 1341 2238 
Q 925 2238 648 2547 
Q 372 2856 372 3481 
z
M 1350 4272 
Q 1141 4272 1002 4090 
Q 863 3909 863 3425 
Q 863 2984 1003 2804 
Q 1144 2625 1350 2625 
Q 1563 2625 1702 2806 
Q 1841 2988 1841 3469 
Q 1841 3913 1700 4092 
Q 1559 4272 1350 4272 
z
M 1353 -169 
L 3859 4659 
L 4316 4659 
L 1819 -169 
L 1353 -169 
z
M 3334 1075 
Q 3334 1569 3581 1911 
Q 3828 2253 4300 2253 
Q 4731 2253 5014 1945 
Q 5297 1638 5297 1041 
Q 5297 459 5011 145 
Q 4725 -169 4303 -169 
Q 3888 -169 3611 142 
Q 3334 453 3334 1075 
z
M 4316 1866 
Q 4103 1866 3964 1684 
Q 3825 1503 3825 1019 
Q 3825 581 3965 400 
Q 4106 219 4313 219 
Q 4528 219 4667 400 
Q 4806 581 4806 1063 
Q 4806 1506 4665 1686 
Q 4525 1866 4316 1866 
z
" transform="scale(0.015625)"/>
      </defs>
      <use xlink:href="#ArialMT-28"/>
      <use xlink:href="#ArialMT-54" transform="translate(66.699219 0)"/>
      <use xlink:href="#ArialMT-11" transform="translate(122.314453 0)"/>
      <use xlink:href="#ArialMT-3" transform="translate(150.097656 0)"/>
      <use xlink:href="#ArialMT-19" transform="translate(177.880859 0)"/>
      <use xlink:href="#ArialMT-11" transform="translate(233.496094 0)"/>
      <use xlink:href="#ArialMT-16" transform="translate(261.279297 0)"/>
      <use xlink:href="#ArialMT-1d" transform="translate(316.894531 0)"/>
      <use xlink:href="#ArialMT-3" transform="translate(344.677734 0)"/>
      <use xlink:href="#Cmmi10-68" transform="translate(372.460938 0)"/>
      <use xlink:href="#Cmr10-77" transform="translate(436.669922 0)"/>
      <use xlink:href="#Cmsy10-1d" transform="translate(495.488338 0)"/>
      <use xlink:href="#Cmr10-64" transform="translate(593.173943 0)"/>
      <use xlink:href="#Cmr10-1c" transform="translate(676.507038 0)"/>
      <use xlink:href="#Cmr10-84" transform="translate(715.325397 0)"/>
      <use xlink:href="#Cmr10-73" transform="translate(754.436725 0)"/>
      <use xlink:href="#Cmr10-74" transform="translate(804.436725 0)"/>
      <use xlink:href="#Cmr10-52" transform="translate(859.954304 0)"/>
      <use xlink:href="#Cmr10-38" transform="translate(899.3586 0)"/>
      <use xlink:href="#Cmr10-24" transform="translate(982.659382 0)"/>
      <use xlink:href="#Cmr10-52" transform="translate(1010.344929 0)"/>
      <use xlink:href="#Cmr10-52" transform="translate(1049.749225 0)"/>
      <use xlink:href="#Cmr10-24" transform="translate(1089.153522 0)"/>
      <use xlink:href="#Cmr10-42" transform="translate(1116.839069 0)"/>
      <use xlink:href="#Cmr10-74" transform="translate(1166.839069 0)"/>
      <use xlink:href="#Cmr10-44" transform="translate(1222.356647 0)"/>
      <use xlink:href="#ArialMT-3" transform="translate(1261.175007 0)"/>
      <use xlink:href="#ArialMT-b" transform="translate(1288.95821 0)"/>
      <use xlink:href="#ArialMT-8" transform="translate(1322.258991 0)"/>
      <use xlink:href="#ArialMT-c" transform="translate(1411.175007 0)"/>
     </g>
    </g>
   </g>
   <g id="line2d_31">
    <path d="M 63.02 108.671718 
L 111.305 174.004794 
L 159.59 261.072119 
L 207.875 288.293385 
L 256.16 290.318656 
L 304.445 290.437136 
L 352.73 290.443959 
L 401.015 290.444351 
L 449.3 290.444374 
L 497.585 290.444375 
L 516.68 290.444375 
" clip-path="url(#pff3da7b4da)" style="fill: none; stroke: #ca6f1e; stroke-width: 2.5; stroke-linecap: square"/>
   </g>
   <g id="patch_3">
    <path d="M 63.02 290.444375 
L 63.02 16.624219 
" style="fill: none; stroke: #000000; stroke-linejoin: miter; stroke-linecap: square"/>
   </g>
   <g id="patch_4">
    <path d="M 63.02 290.444375 
L 449.3 290.444375 
" style="fill: none; stroke: #000000; stroke-linejoin: miter; stroke-linecap: square"/>
   </g>
   <g id="text_18">
    <!-- at Q=0: $R_i$=1.09 -->
    <g style="fill: #ca6f1e" transform="translate(169.247 52.827628) scale(0.12 -0.12)">
     <defs>
      <path id="ArialMT-34" d="M 3966 491 
Q 4388 200 4744 66 
L 4566 -356 
Q 4072 -178 3581 206 
Q 3072 -78 2456 -78 
Q 1834 -78 1328 222 
Q 822 522 548 1065 
Q 275 1609 275 2291 
Q 275 2969 550 3525 
Q 825 4081 1333 4372 
Q 1841 4663 2469 4663 
Q 3103 4663 3612 4361 
Q 4122 4059 4389 3517 
Q 4656 2975 4656 2294 
Q 4656 1728 4484 1276 
Q 4313 825 3966 491 
z
M 2631 1266 
Q 3156 1119 3497 828 
Q 4031 1316 4031 2294 
Q 4031 2850 3842 3265 
Q 3653 3681 3289 3911 
Q 2925 4141 2472 4141 
Q 1794 4141 1347 3677 
Q 900 3213 900 2291 
Q 900 1397 1342 919 
Q 1784 441 2472 441 
Q 2797 441 3084 563 
Q 2800 747 2484 825 
L 2631 1266 
z
" transform="scale(0.015625)"/>
      <path id="ArialMT-20" d="M 3381 2694 
L 356 2694 
L 356 3219 
L 3381 3219 
L 3381 2694 
z
M 3381 1303 
L 356 1303 
L 356 1828 
L 3381 1828 
L 3381 1303 
z
" transform="scale(0.015625)"/>
      <path id="Cmmi10-70" d="M 313 0 
Q 250 0 250 84 
Q 253 100 262 139 
Q 272 178 289 201 
Q 306 225 331 225 
Q 722 225 878 269 
Q 959 297 997 441 
L 1875 3956 
Q 1888 4019 1888 4044 
Q 1888 4113 1813 4122 
Q 1691 4147 1350 4147 
Q 1288 4147 1288 4231 
Q 1291 4247 1300 4286 
Q 1309 4325 1326 4348 
Q 1344 4372 1369 4372 
L 3309 4372 
Q 3541 4372 3791 4319 
Q 4041 4266 4250 4152 
Q 4459 4038 4593 3848 
Q 4728 3659 4728 3406 
Q 4728 3084 4515 2831 
Q 4303 2578 3978 2408 
Q 3653 2238 3347 2169 
Q 3597 2078 3756 1879 
Q 3916 1681 3916 1422 
Q 3916 1388 3914 1370 
Q 3913 1353 3909 1331 
L 3859 763 
Q 3853 638 3847 550 
Q 3841 463 3841 409 
Q 3841 234 3892 129 
Q 3944 25 4097 25 
Q 4297 25 4448 211 
Q 4600 397 4647 616 
Q 4675 672 4709 672 
L 4769 672 
Q 4831 672 4831 588 
Q 4784 403 4682 237 
Q 4581 72 4426 -34 
Q 4272 -141 4091 -141 
Q 3716 -141 3452 26 
Q 3188 194 3188 550 
Q 3188 684 3213 788 
L 3353 1356 
Q 3378 1434 3378 1538 
Q 3378 1803 3198 1954 
Q 3019 2106 2747 2106 
L 1959 2106 
L 1538 416 
Q 1522 363 1522 325 
Q 1522 259 1600 250 
Q 1722 225 2059 225 
Q 2125 225 2125 141 
Q 2103 50 2090 25 
Q 2078 0 2016 0 
L 313 0 
z
M 1997 2272 
L 2706 2272 
Q 3403 2272 3756 2625 
Q 3919 2788 4014 3039 
Q 4109 3291 4109 3541 
Q 4109 3778 3970 3912 
Q 3831 4047 3626 4097 
Q 3422 4147 3175 4147 
L 2747 4147 
Q 2572 4147 2515 4117 
Q 2459 4088 2413 3928 
L 1997 2272 
z
" transform="scale(0.015625)"/>
      <path id="Cmmi10-37" d="M 500 459 
Q 500 578 550 709 
L 1069 2088 
Q 1153 2322 1153 2472 
Q 1153 2663 1013 2663 
Q 759 2663 595 2402 
Q 431 2141 353 1819 
Q 341 1778 300 1778 
L 225 1778 
Q 172 1778 172 1838 
L 172 1856 
Q 275 2238 487 2533 
Q 700 2828 1025 2828 
Q 1253 2828 1411 2678 
Q 1569 2528 1569 2297 
Q 1569 2178 1516 2047 
L 997 672 
Q 909 459 909 288 
Q 909 97 1056 97 
Q 1306 97 1473 364 
Q 1641 631 1709 941 
Q 1722 978 1759 978 
L 1838 978 
Q 1863 978 1878 961 
Q 1894 944 1894 922 
Q 1894 916 1888 903 
Q 1800 541 1583 234 
Q 1366 -72 1044 -72 
Q 819 -72 659 83 
Q 500 238 500 459 
z
M 1222 3878 
Q 1222 4013 1334 4122 
Q 1447 4231 1581 4231 
Q 1691 4231 1761 4164 
Q 1831 4097 1831 3994 
Q 1831 3850 1717 3742 
Q 1603 3634 1466 3634 
Q 1363 3634 1292 3704 
Q 1222 3775 1222 3878 
z
" transform="scale(0.015625)"/>
      <path id="ArialMT-1c" d="M 350 1059 
L 891 1109 
Q 959 728 1153 556 
Q 1347 384 1650 384 
Q 1909 384 2104 503 
Q 2300 622 2425 820 
Q 2550 1019 2634 1356 
Q 2719 1694 2719 2044 
Q 2719 2081 2716 2156 
Q 2547 1888 2255 1720 
Q 1963 1553 1622 1553 
Q 1053 1553 659 1965 
Q 266 2378 266 3053 
Q 266 3750 677 4175 
Q 1088 4600 1706 4600 
Q 2153 4600 2523 4359 
Q 2894 4119 3086 3673 
Q 3278 3228 3278 2384 
Q 3278 1506 3087 986 
Q 2897 466 2520 194 
Q 2144 -78 1638 -78 
Q 1100 -78 759 220 
Q 419 519 350 1059 
z
M 2653 3081 
Q 2653 3566 2395 3850 
Q 2138 4134 1775 4134 
Q 1400 4134 1122 3828 
Q 844 3522 844 3034 
Q 844 2597 1108 2323 
Q 1372 2050 1759 2050 
Q 2150 2050 2401 2323 
Q 2653 2597 2653 3081 
z
" transform="scale(0.015625)"/>
     </defs>
     <use xlink:href="#ArialMT-44" transform="translate(0 0.140625)"/>
     <use xlink:href="#ArialMT-57" transform="translate(55.615234 0.140625)"/>
     <use xlink:href="#ArialMT-3" transform="translate(83.398438 0.140625)"/>
     <use xlink:href="#ArialMT-34" transform="translate(111.181641 0.140625)"/>
     <use xlink:href="#ArialMT-20" transform="translate(188.964844 0.140625)"/>
     <use xlink:href="#ArialMT-13" transform="translate(247.363281 0.140625)"/>
     <use xlink:href="#ArialMT-1d" transform="translate(302.978516 0.140625)"/>
     <use xlink:href="#ArialMT-3" transform="translate(330.761719 0.140625)"/>
     <use xlink:href="#Cmmi10-70" transform="translate(358.544922 0.140625)"/>
     <use xlink:href="#Cmmi10-37" transform="translate(434.423828 -14.859337) scale(0.7)"/>
     <use xlink:href="#ArialMT-20" transform="translate(464.240923 0.140625)"/>
     <use xlink:href="#ArialMT-14" transform="translate(522.639361 0.140625)"/>
     <use xlink:href="#ArialMT-11" transform="translate(578.254595 0.140625)"/>
     <use xlink:href="#ArialMT-13" transform="translate(606.037798 0.140625)"/>
     <use xlink:href="#ArialMT-1c" transform="translate(661.653033 0.140625)"/>
    </g>
    <!-- $P$=66.4% -->
    <g style="fill: #ca6f1e" transform="translate(169.247 65.911847) scale(0.12 -0.12)">
     <use xlink:href="#Cmmi10-68" transform="translate(0 0.203125)"/>
     <use xlink:href="#ArialMT-20" transform="translate(64.208984 0.203125)"/>
     <use xlink:href="#ArialMT-19" transform="translate(122.607422 0.203125)"/>
     <use xlink:href="#ArialMT-19" transform="translate(178.222656 0.203125)"/>
     <use xlink:href="#ArialMT-11" transform="translate(233.837891 0.203125)"/>
     <use xlink:href="#ArialMT-17" transform="translate(261.621094 0.203125)"/>
     <use xlink:href="#ArialMT-8" transform="translate(317.236328 0.203125)"/>
    </g>
   </g>
   <g id="text_19">
    <!-- patient #530 (vaccinated), $R_i(Q{=}0)$ closest to $R^*$ -->
    <g style="fill: #595959" transform="translate(239.2544 271.765166) scale(0.09 -0.09)">
     <defs>
      <path id="ArialMT-6" d="M 322 -78 
L 594 1253 
L 66 1253 
L 66 1719 
L 688 1719 
L 919 2853 
L 66 2853 
L 66 3319 
L 1013 3319 
L 1284 4659 
L 1753 4659 
L 1481 3319 
L 2466 3319 
L 2738 4659 
L 3209 4659 
L 2938 3319 
L 3478 3319 
L 3478 2853 
L 2844 2853 
L 2609 1719 
L 3478 1719 
L 3478 1253 
L 2516 1253 
L 2244 -78 
L 1775 -78 
L 2044 1253 
L 1063 1253 
L 791 -78 
L 322 -78 
z
M 1156 1719 
L 2138 1719 
L 2372 2853 
L 1388 2853 
L 1156 1719 
z
" transform="scale(0.015625)"/>
      <path id="ArialMT-59" d="M 1344 0 
L 81 3319 
L 675 3319 
L 1388 1331 
Q 1503 1009 1600 663 
Q 1675 925 1809 1294 
L 2547 3319 
L 3125 3319 
L 1869 0 
L 1344 0 
z
" transform="scale(0.015625)"/>
      <path id="ArialMT-46" d="M 2588 1216 
L 3141 1144 
Q 3050 572 2676 248 
Q 2303 -75 1759 -75 
Q 1078 -75 664 370 
Q 250 816 250 1647 
Q 250 2184 428 2587 
Q 606 2991 970 3192 
Q 1334 3394 1763 3394 
Q 2303 3394 2647 3120 
Q 2991 2847 3088 2344 
L 2541 2259 
Q 2463 2594 2264 2762 
Q 2066 2931 1784 2931 
Q 1359 2931 1093 2626 
Q 828 2322 828 1663 
Q 828 994 1084 691 
Q 1341 388 1753 388 
Q 2084 388 2306 591 
Q 2528 794 2588 1216 
z
" transform="scale(0.015625)"/>
      <path id="Cmr10-29" d="M 481 850 
Q 428 850 393 890 
Q 359 931 359 978 
Q 359 1031 393 1068 
Q 428 1106 481 1106 
L 4500 1106 
Q 4547 1106 4581 1068 
Q 4616 1031 4616 978 
Q 4616 931 4581 890 
Q 4547 850 4500 850 
L 481 850 
z
M 481 2094 
Q 428 2094 393 2131 
Q 359 2169 359 2222 
Q 359 2269 393 2309 
Q 428 2350 481 2350 
L 4500 2350 
Q 4547 2350 4581 2309 
Q 4616 2269 4616 2222 
Q 4616 2169 4581 2131 
Q 4547 2094 4500 2094 
L 481 2094 
z
" transform="scale(0.015625)"/>
      <path id="Cmr10-28" d="M 1600 -141 
Q 816 -141 533 504 
Q 250 1150 250 2041 
Q 250 2597 351 3087 
Q 453 3578 754 3920 
Q 1056 4263 1600 4263 
Q 2022 4263 2290 4056 
Q 2559 3850 2700 3523 
Q 2841 3197 2892 2823 
Q 2944 2450 2944 2041 
Q 2944 1491 2842 1011 
Q 2741 531 2444 195 
Q 2147 -141 1600 -141 
z
M 1600 25 
Q 1956 25 2131 390 
Q 2306 756 2347 1200 
Q 2388 1644 2388 2144 
Q 2388 2625 2347 3031 
Q 2306 3438 2132 3767 
Q 1959 4097 1600 4097 
Q 1238 4097 1063 3765 
Q 888 3434 847 3029 
Q 806 2625 806 2144 
Q 806 1788 823 1472 
Q 841 1156 916 820 
Q 991 484 1158 254 
Q 1325 25 1600 25 
z
" transform="scale(0.015625)"/>
      <path id="Cmsy10-9" d="M 603 813 
Q 531 813 473 873 
Q 416 934 416 1006 
Q 416 1116 506 1159 
L 1428 1600 
L 506 2034 
Q 416 2072 416 2188 
Q 416 2259 473 2320 
Q 531 2381 603 2381 
Q 650 2381 691 2350 
L 1509 1753 
L 1416 2797 
Q 1416 2875 1469 2925 
Q 1522 2975 1600 2975 
Q 1675 2975 1726 2928 
Q 1778 2881 1778 2809 
L 1778 2797 
L 1684 1753 
L 2503 2350 
Q 2544 2381 2591 2381 
Q 2669 2381 2723 2320 
Q 2778 2259 2778 2188 
Q 2778 2072 2688 2034 
L 1766 1600 
L 2688 1159 
Q 2778 1116 2778 1006 
Q 2778 934 2723 873 
Q 2669 813 2591 813 
Q 2544 813 2503 844 
L 1684 1441 
L 1778 403 
L 1778 384 
Q 1778 313 1723 266 
Q 1669 219 1600 219 
Q 1525 219 1470 270 
Q 1416 322 1416 397 
L 1509 1441 
L 691 844 
Q 650 813 603 813 
z
" transform="scale(0.015625)"/>
     </defs>
     <use xlink:href="#ArialMT-53"/>
     <use xlink:href="#ArialMT-44" transform="translate(55.615234 0)"/>
     <use xlink:href="#ArialMT-57" transform="translate(111.230469 0)"/>
     <use xlink:href="#ArialMT-4c" transform="translate(139.013672 0)"/>
     <use xlink:href="#ArialMT-48" transform="translate(161.230469 0)"/>
     <use xlink:href="#ArialMT-51" transform="translate(216.845703 0)"/>
     <use xlink:href="#ArialMT-57" transform="translate(272.460938 0)"/>
     <use xlink:href="#ArialMT-3" transform="translate(300.244141 0)"/>
     <use xlink:href="#ArialMT-6" transform="translate(328.027344 0)"/>
     <use xlink:href="#ArialMT-18" transform="translate(383.642578 0)"/>
     <use xlink:href="#ArialMT-16" transform="translate(439.257812 0)"/>
     <use xlink:href="#ArialMT-13" transform="translate(494.873047 0)"/>
     <use xlink:href="#ArialMT-3" transform="translate(550.488281 0)"/>
     <use xlink:href="#ArialMT-b" transform="translate(578.271484 0)"/>
     <use xlink:href="#ArialMT-59" transform="translate(611.572266 0)"/>
     <use xlink:href="#ArialMT-44" transform="translate(661.572266 0)"/>
     <use xlink:href="#ArialMT-46" transform="translate(717.1875 0)"/>
     <use xlink:href="#ArialMT-46" transform="translate(767.1875 0)"/>
     <use xlink:href="#ArialMT-4c" transform="translate(817.1875 0)"/>
     <use xlink:href="#ArialMT-51" transform="translate(839.404297 0)"/>
     <use xlink:href="#ArialMT-44" transform="translate(895.019531 0)"/>
     <use xlink:href="#ArialMT-57" transform="translate(950.634766 0)"/>
     <use xlink:href="#ArialMT-48" transform="translate(978.417969 0)"/>
     <use xlink:href="#ArialMT-47" transform="translate(1034.033203 0)"/>
     <use xlink:href="#ArialMT-c" transform="translate(1089.648438 0)"/>
     <use xlink:href="#ArialMT-f" transform="translate(1122.949219 0)"/>
     <use xlink:href="#ArialMT-3" transform="translate(1150.732422 0)"/>
     <use xlink:href="#Cmmi10-70" transform="translate(1178.515625 0)"/>
     <use xlink:href="#Cmmi10-37" transform="translate(1254.394531 -14.999962) scale(0.7)"/>
     <use xlink:href="#Cmr10-77" transform="translate(1284.211626 0)"/>
     <use xlink:href="#Cmmi10-3c" transform="translate(1323.029986 0)"/>
     <use xlink:href="#Cmr10-29" transform="translate(1422.033949 0)"/>
     <use xlink:href="#Cmr10-28" transform="translate(1519.719553 0)"/>
     <use xlink:href="#Cmr10-44" transform="translate(1569.719553 0)"/>
     <use xlink:href="#ArialMT-3" transform="translate(1608.537913 0)"/>
     <use xlink:href="#ArialMT-46" transform="translate(1636.321116 0)"/>
     <use xlink:href="#ArialMT-4f" transform="translate(1686.321116 0)"/>
     <use xlink:href="#ArialMT-52" transform="translate(1708.537913 0)"/>
     <use xlink:href="#ArialMT-56" transform="translate(1764.153147 0)"/>
     <use xlink:href="#ArialMT-48" transform="translate(1814.153147 0)"/>
     <use xlink:href="#ArialMT-56" transform="translate(1869.768381 0)"/>
     <use xlink:href="#ArialMT-57" transform="translate(1919.768381 0)"/>
     <use xlink:href="#ArialMT-3" transform="translate(1947.551585 0)"/>
     <use xlink:href="#ArialMT-57" transform="translate(1975.334788 0)"/>
     <use xlink:href="#ArialMT-52" transform="translate(2003.117991 0)"/>
     <use xlink:href="#ArialMT-3" transform="translate(2058.733225 0)"/>
     <use xlink:href="#Cmmi10-70" transform="translate(2086.516428 0)"/>
     <use xlink:href="#Cmsy10-9" transform="translate(2192.721807 41.289234) scale(0.7)"/>
    </g>
   </g>
  </g>
  <g id="axes_2">
   <g id="matplotlib.axis_3">
    <g id="ytick_22">
     <g id="line2d_32">
      <defs>
       <path id="m0b3fc43788" d="M 0 0 
L 6 0 
" style="stroke: #000000"/>
      </defs>
      <g>
       <use xlink:href="#m0b3fc43788" x="449.3" y="290.444375" style="stroke: #000000"/>
      </g>
     </g>
     <g id="text_20">
      <!-- $\mathdefault{0}$ -->
      <g style="fill: #1b4f72" transform="translate(458.8 296.268594) scale(0.16 -0.16)">
       <use xlink:href="#ArialMT-13" transform="translate(0 0.125)"/>
      </g>
     </g>
    </g>
    <g id="ytick_23">
     <g id="line2d_33">
      <g>
       <use xlink:href="#m0b3fc43788" x="449.3" y="235.680344" style="stroke: #000000"/>
      </g>
     </g>
     <g id="text_21">
      <!-- $\mathdefault{20}$ -->
      <g style="fill: #1b4f72" transform="translate(458.8 241.504563) scale(0.16 -0.16)">
       <use xlink:href="#ArialMT-15" transform="translate(0 0.125)"/>
       <use xlink:href="#ArialMT-13" transform="translate(55.615234 0.125)"/>
      </g>
     </g>
    </g>
    <g id="ytick_24">
     <g id="line2d_34">
      <g>
       <use xlink:href="#m0b3fc43788" x="449.3" y="180.916313" style="stroke: #000000"/>
      </g>
     </g>
     <g id="text_22">
      <!-- $\mathdefault{40}$ -->
      <g style="fill: #1b4f72" transform="translate(458.8 186.740531) scale(0.16 -0.16)">
       <use xlink:href="#ArialMT-17" transform="translate(0 0.125)"/>
       <use xlink:href="#ArialMT-13" transform="translate(55.615234 0.125)"/>
      </g>
     </g>
    </g>
    <g id="ytick_25">
     <g id="line2d_35">
      <g>
       <use xlink:href="#m0b3fc43788" x="449.3" y="126.152281" style="stroke: #000000"/>
      </g>
     </g>
     <g id="text_23">
      <!-- $\mathdefault{60}$ -->
      <g style="fill: #1b4f72" transform="translate(458.8 131.9765) scale(0.16 -0.16)">
       <use xlink:href="#ArialMT-19" transform="translate(0 0.125)"/>
       <use xlink:href="#ArialMT-13" transform="translate(55.615234 0.125)"/>
      </g>
     </g>
    </g>
    <g id="ytick_26">
     <g id="line2d_36">
      <g>
       <use xlink:href="#m0b3fc43788" x="449.3" y="71.38825" style="stroke: #000000"/>
      </g>
     </g>
     <g id="text_24">
      <!-- $\mathdefault{80}$ -->
      <g style="fill: #1b4f72" transform="translate(458.8 77.212469) scale(0.16 -0.16)">
       <use xlink:href="#ArialMT-1b" transform="translate(0 0.125)"/>
       <use xlink:href="#ArialMT-13" transform="translate(55.615234 0.125)"/>
      </g>
     </g>
    </g>
    <g id="ytick_27">
     <g id="line2d_37">
      <g>
       <use xlink:href="#m0b3fc43788" x="449.3" y="16.624219" style="stroke: #000000"/>
      </g>
     </g>
     <g id="text_25">
      <!-- $\mathdefault{100}$ -->
      <g style="fill: #1b4f72" transform="translate(458.8 22.448438) scale(0.16 -0.16)">
       <use xlink:href="#ArialMT-14" transform="translate(0 0.125)"/>
       <use xlink:href="#ArialMT-13" transform="translate(55.615234 0.125)"/>
       <use xlink:href="#ArialMT-13" transform="translate(111.230469 0.125)"/>
      </g>
     </g>
    </g>
    <g id="ytick_28">
     <g id="line2d_38">
      <defs>
       <path id="ma0f20f5a02" d="M 0 0 
L 3 0 
" style="stroke: #000000"/>
      </defs>
      <g>
       <use xlink:href="#ma0f20f5a02" x="449.3" y="276.753367" style="stroke: #000000"/>
      </g>
     </g>
    </g>
    <g id="ytick_29">
     <g id="line2d_39">
      <g>
       <use xlink:href="#ma0f20f5a02" x="449.3" y="263.062359" style="stroke: #000000"/>
      </g>
     </g>
    </g>
    <g id="ytick_30">
     <g id="line2d_40">
      <g>
       <use xlink:href="#ma0f20f5a02" x="449.3" y="249.371352" style="stroke: #000000"/>
      </g>
     </g>
    </g>
    <g id="ytick_31">
     <g id="line2d_41">
      <g>
       <use xlink:href="#ma0f20f5a02" x="449.3" y="221.989336" style="stroke: #000000"/>
      </g>
     </g>
    </g>
    <g id="ytick_32">
     <g id="line2d_42">
      <g>
       <use xlink:href="#ma0f20f5a02" x="449.3" y="208.298328" style="stroke: #000000"/>
      </g>
     </g>
    </g>
    <g id="ytick_33">
     <g id="line2d_43">
      <g>
       <use xlink:href="#ma0f20f5a02" x="449.3" y="194.60732" style="stroke: #000000"/>
      </g>
     </g>
    </g>
    <g id="ytick_34">
     <g id="line2d_44">
      <g>
       <use xlink:href="#ma0f20f5a02" x="449.3" y="167.225305" style="stroke: #000000"/>
      </g>
     </g>
    </g>
    <g id="ytick_35">
     <g id="line2d_45">
      <g>
       <use xlink:href="#ma0f20f5a02" x="449.3" y="153.534297" style="stroke: #000000"/>
      </g>
     </g>
    </g>
    <g id="ytick_36">
     <g id="line2d_46">
      <g>
       <use xlink:href="#ma0f20f5a02" x="449.3" y="139.843289" style="stroke: #000000"/>
      </g>
     </g>
    </g>
    <g id="ytick_37">
     <g id="line2d_47">
      <g>
       <use xlink:href="#ma0f20f5a02" x="449.3" y="112.461273" style="stroke: #000000"/>
      </g>
     </g>
    </g>
    <g id="ytick_38">
     <g id="line2d_48">
      <g>
       <use xlink:href="#ma0f20f5a02" x="449.3" y="98.770266" style="stroke: #000000"/>
      </g>
     </g>
    </g>
    <g id="ytick_39">
     <g id="line2d_49">
      <g>
       <use xlink:href="#ma0f20f5a02" x="449.3" y="85.079258" style="stroke: #000000"/>
      </g>
     </g>
    </g>
    <g id="ytick_40">
     <g id="line2d_50">
      <g>
       <use xlink:href="#ma0f20f5a02" x="449.3" y="57.697242" style="stroke: #000000"/>
      </g>
     </g>
    </g>
    <g id="ytick_41">
     <g id="line2d_51">
      <g>
       <use xlink:href="#ma0f20f5a02" x="449.3" y="44.006234" style="stroke: #000000"/>
      </g>
     </g>
    </g>
    <g id="ytick_42">
     <g id="line2d_52">
      <g>
       <use xlink:href="#ma0f20f5a02" x="449.3" y="30.315227" style="stroke: #000000"/>
      </g>
     </g>
    </g>
    <g id="text_26">
     <!-- Eq. 6.4: $P_s^{(\mathrm{post})}$, major outbreak (%) -->
     <g style="fill: #1b4f72" transform="translate(502.12 246.414297) rotate(-90) scale(0.12 -0.12)">
      <defs>
       <path id="Cmr10-7d" d="M 166 -1241 
L 166 -1019 
Q 384 -1019 525 -981 
Q 666 -944 666 -813 
L 666 2272 
Q 666 2447 541 2490 
Q 416 2534 166 2534 
L 166 2759 
L 1113 2828 
L 1113 2431 
Q 1288 2625 1520 2726 
Q 1753 2828 2016 2828 
Q 2394 2828 2697 2623 
Q 3000 2419 3170 2086 
Q 3341 1753 3341 1381 
Q 3341 994 3152 659 
Q 2963 325 2636 126 
Q 2309 -72 1919 -72 
Q 1453 -72 1131 306 
L 1131 -813 
Q 1131 -944 1273 -981 
Q 1416 -1019 1631 -1019 
L 1631 -1241 
L 166 -1241 
z
M 1131 622 
Q 1244 394 1444 245 
Q 1644 97 1881 97 
Q 2103 97 2273 215 
Q 2444 334 2559 534 
Q 2675 734 2729 954 
Q 2784 1175 2784 1381 
Q 2784 1638 2692 1936 
Q 2600 2234 2411 2439 
Q 2222 2644 1953 2644 
Q 1694 2644 1476 2511 
Q 1259 2378 1131 2150 
L 1131 622 
z
" transform="scale(0.015625)"/>
       <path id="Cmmi10-58" d="M 556 391 
Q 728 97 1247 97 
Q 1472 97 1675 173 
Q 1878 250 2011 403 
Q 2144 556 2144 775 
Q 2144 941 2025 1047 
Q 1906 1153 1734 1191 
L 1388 1259 
Q 1150 1319 997 1481 
Q 844 1644 844 1875 
Q 844 2159 998 2378 
Q 1153 2597 1406 2712 
Q 1659 2828 1931 2828 
Q 2222 2828 2451 2689 
Q 2681 2550 2681 2278 
Q 2681 2131 2598 2018 
Q 2516 1906 2369 1906 
Q 2284 1906 2223 1961 
Q 2163 2016 2163 2100 
Q 2163 2175 2205 2245 
Q 2247 2316 2317 2358 
Q 2388 2400 2463 2400 
Q 2406 2538 2251 2600 
Q 2097 2663 1919 2663 
Q 1756 2663 1593 2597 
Q 1431 2531 1332 2404 
Q 1234 2278 1234 2106 
Q 1234 1991 1315 1903 
Q 1397 1816 1516 1778 
L 1888 1703 
Q 2066 1666 2214 1570 
Q 2363 1475 2448 1329 
Q 2534 1184 2534 997 
Q 2534 759 2401 528 
Q 2269 297 2075 159 
Q 1734 -72 1241 -72 
Q 900 -72 615 84 
Q 331 241 331 550 
Q 331 725 432 854 
Q 534 984 709 984 
Q 813 984 883 921 
Q 953 859 953 756 
Q 953 609 843 500 
Q 734 391 588 391 
L 556 391 
z
" transform="scale(0.015625)"/>
       <path id="ArialMT-4d" d="M 419 3928 
L 419 4581 
L 981 4581 
L 981 3928 
L 419 3928 
z
M -294 -1288 
L -188 -809 
Q -19 -853 78 -853 
Q 250 -853 334 -739 
Q 419 -625 419 -169 
L 419 3319 
L 981 3319 
L 981 -181 
Q 981 -794 822 -1034 
Q 619 -1347 147 -1347 
Q -81 -1347 -294 -1288 
z
" transform="scale(0.015625)"/>
       <path id="ArialMT-58" d="M 2597 0 
L 2597 488 
Q 2209 -75 1544 -75 
Q 1250 -75 995 37 
Q 741 150 617 320 
Q 494 491 444 738 
Q 409 903 409 1263 
L 409 3319 
L 972 3319 
L 972 1478 
Q 972 1038 1006 884 
Q 1059 663 1231 536 
Q 1403 409 1656 409 
Q 1909 409 2131 539 
Q 2353 669 2445 892 
Q 2538 1116 2538 1541 
L 2538 3319 
L 3100 3319 
L 3100 0 
L 2597 0 
z
" transform="scale(0.015625)"/>
       <path id="ArialMT-45" d="M 941 0 
L 419 0 
L 419 4581 
L 981 4581 
L 981 2947 
Q 1338 3394 1891 3394 
Q 2197 3394 2470 3270 
Q 2744 3147 2920 2923 
Q 3097 2700 3197 2384 
Q 3297 2069 3297 1709 
Q 3297 856 2875 390 
Q 2453 -75 1863 -75 
Q 1275 -75 941 416 
L 941 0 
z
M 934 1684 
Q 934 1088 1097 822 
Q 1363 388 1816 388 
Q 2184 388 2453 708 
Q 2722 1028 2722 1663 
Q 2722 2313 2464 2622 
Q 2206 2931 1841 2931 
Q 1472 2931 1203 2611 
Q 934 2291 934 1684 
z
" transform="scale(0.015625)"/>
       <path id="ArialMT-4e" d="M 425 0 
L 425 4581 
L 988 4581 
L 988 1969 
L 2319 3319 
L 3047 3319 
L 1778 2088 
L 3175 0 
L 2481 0 
L 1384 1697 
L 988 1316 
L 988 0 
L 425 0 
z
" transform="scale(0.015625)"/>
      </defs>
      <use xlink:href="#ArialMT-28" transform="translate(0 0.555573)"/>
      <use xlink:href="#ArialMT-54" transform="translate(66.699219 0.555573)"/>
      <use xlink:href="#ArialMT-11" transform="translate(122.314453 0.555573)"/>
      <use xlink:href="#ArialMT-3" transform="translate(150.097656 0.555573)"/>
      <use xlink:href="#ArialMT-19" transform="translate(177.880859 0.555573)"/>
      <use xlink:href="#ArialMT-11" transform="translate(233.496094 0.555573)"/>
      <use xlink:href="#ArialMT-17" transform="translate(261.279297 0.555573)"/>
      <use xlink:href="#ArialMT-1d" transform="translate(316.894531 0.555573)"/>
      <use xlink:href="#ArialMT-3" transform="translate(344.677734 0.555573)"/>
      <use xlink:href="#Cmmi10-68" transform="translate(372.460938 0.555573)"/>
      <use xlink:href="#Cmr10-77" transform="translate(452.996354 52.5) scale(0.7)"/>
      <use xlink:href="#Cmr10-7d" transform="translate(480.169205 52.5) scale(0.7)"/>
      <use xlink:href="#Cmr10-42" transform="translate(519.03151 52.5) scale(0.7)"/>
      <use xlink:href="#Cmr10-52" transform="translate(554.03151 52.5) scale(0.7)"/>
      <use xlink:href="#Cmr10-1c" transform="translate(581.614518 52.5) scale(0.7)"/>
      <use xlink:href="#Cmr10-44" transform="translate(608.787369 52.5) scale(0.7)"/>
      <use xlink:href="#Cmmi10-58" transform="translate(436.669922 -20.93125) scale(0.7)"/>
      <use xlink:href="#ArialMT-f" transform="translate(641.680636 0.555573)"/>
      <use xlink:href="#ArialMT-3" transform="translate(669.46384 0.555573)"/>
      <use xlink:href="#ArialMT-50" transform="translate(697.247043 0.555573)"/>
      <use xlink:href="#ArialMT-44" transform="translate(780.547824 0.555573)"/>
      <use xlink:href="#ArialMT-4d" transform="translate(836.163058 0.555573)"/>
      <use xlink:href="#ArialMT-52" transform="translate(858.379855 0.555573)"/>
      <use xlink:href="#ArialMT-55" transform="translate(913.99509 0.555573)"/>
      <use xlink:href="#ArialMT-3" transform="translate(947.295871 0.555573)"/>
      <use xlink:href="#ArialMT-52" transform="translate(975.079074 0.555573)"/>
      <use xlink:href="#ArialMT-58" transform="translate(1030.694308 0.555573)"/>
      <use xlink:href="#ArialMT-57" transform="translate(1086.309543 0.555573)"/>
      <use xlink:href="#ArialMT-45" transform="translate(1114.092746 0.555573)"/>
      <use xlink:href="#ArialMT-55" transform="translate(1169.70798 0.555573)"/>
      <use xlink:href="#ArialMT-48" transform="translate(1203.008761 0.555573)"/>
      <use xlink:href="#ArialMT-44" transform="translate(1258.623996 0.555573)"/>
      <use xlink:href="#ArialMT-4e" transform="translate(1314.23923 0.555573)"/>
      <use xlink:href="#ArialMT-3" transform="translate(1364.23923 0.555573)"/>
      <use xlink:href="#ArialMT-b" transform="translate(1392.022433 0.555573)"/>
      <use xlink:href="#ArialMT-8" transform="translate(1425.323215 0.555573)"/>
      <use xlink:href="#ArialMT-c" transform="translate(1514.23923 0.555573)"/>
     </g>
    </g>
   </g>
   <g id="line2d_53">
    <path d="M 63.02 125.909493 
L 111.305 188.344798 
L 159.59 265.478872 
L 207.875 288.630955 
L 256.16 290.338448 
L 304.445 290.438276 
L 352.73 290.444024 
L 401.015 290.444355 
L 449.3 290.444374 
L 497.585 290.444375 
L 516.68 290.444375 
" clip-path="url(#pff3da7b4da)" style="fill: none; stroke: #1b4f72; stroke-width: 2.5; stroke-linecap: square"/>
   </g>
   <g id="patch_5">
    <path d="M 63.02 290.444375 
L 63.02 16.624219 
" style="fill: none; stroke: #000000; stroke-linejoin: miter; stroke-linecap: square"/>
   </g>
   <g id="patch_6">
    <path d="M 63.02 290.444375 
L 449.3 290.444375 
" style="fill: none; stroke: #000000; stroke-linejoin: miter; stroke-linecap: square"/>
   </g>
   <g id="text_27">
    <!-- at Q=0: $R_i^{(\mathrm{post})}$=1.09, $p_{\mathrm{out}}$=0.84 -->
    <g style="fill: #1b4f72" transform="translate(169.247 134.964523) scale(0.12 -0.12)">
     <defs>
      <path id="Cmmi10-80" d="M -159 -1241 
Q -219 -1241 -219 -1159 
Q -197 -1019 -134 -1019 
Q 66 -1019 145 -983 
Q 225 -947 269 -800 
L 991 2081 
Q 1038 2200 1038 2388 
Q 1038 2663 850 2663 
Q 650 2663 553 2423 
Q 456 2184 366 1819 
Q 366 1778 313 1778 
L 238 1778 
Q 222 1778 203 1801 
Q 184 1825 184 1844 
Q 253 2122 317 2315 
Q 381 2509 517 2668 
Q 653 2828 856 2828 
Q 1075 2828 1240 2704 
Q 1406 2581 1453 2369 
Q 1628 2572 1840 2700 
Q 2053 2828 2278 2828 
Q 2547 2828 2745 2684 
Q 2944 2541 3044 2308 
Q 3144 2075 3144 1806 
Q 3144 1394 2933 953 
Q 2722 513 2361 220 
Q 2000 -72 1588 -72 
Q 1400 -72 1248 34 
Q 1097 141 1013 313 
L 722 -825 
Q 706 -919 703 -934 
Q 703 -1019 1125 -1019 
Q 1191 -1019 1191 -1100 
Q 1169 -1184 1155 -1212 
Q 1141 -1241 1081 -1241 
L -159 -1241 
z
M 1594 97 
Q 1816 97 2006 280 
Q 2197 463 2316 691 
Q 2403 863 2479 1111 
Q 2556 1359 2612 1640 
Q 2669 1922 2669 2088 
Q 2669 2234 2630 2362 
Q 2591 2491 2502 2577 
Q 2413 2663 2266 2663 
Q 2031 2663 1823 2495 
Q 1616 2328 1447 2081 
L 1447 2059 
L 1094 647 
Q 1138 419 1263 258 
Q 1388 97 1594 97 
z
" transform="scale(0.015625)"/>
      <path id="Cmr10-5a" d="M 691 763 
L 691 2175 
Q 691 2347 639 2423 
Q 588 2500 491 2517 
Q 394 2534 191 2534 
L 191 2759 
L 1159 2828 
L 1159 763 
Q 1159 513 1195 373 
Q 1231 234 1348 165 
Q 1466 97 1722 97 
Q 2066 97 2269 384 
Q 2472 672 2472 1038 
L 2472 2175 
Q 2472 2347 2419 2423 
Q 2366 2500 2270 2517 
Q 2175 2534 1972 2534 
L 1972 2759 
L 2938 2828 
L 2938 581 
Q 2938 413 2989 336 
Q 3041 259 3137 242 
Q 3234 225 3438 225 
L 3438 0 
L 2491 -72 
L 2491 469 
Q 2372 228 2159 78 
Q 1947 -72 1691 -72 
Q 1231 -72 961 123 
Q 691 319 691 763 
z
" transform="scale(0.015625)"/>
     </defs>
     <use xlink:href="#ArialMT-44" transform="translate(0 0.555573)"/>
     <use xlink:href="#ArialMT-57" transform="translate(55.615234 0.555573)"/>
     <use xlink:href="#ArialMT-3" transform="translate(83.398438 0.555573)"/>
     <use xlink:href="#ArialMT-34" transform="translate(111.181641 0.555573)"/>
     <use xlink:href="#ArialMT-20" transform="translate(188.964844 0.555573)"/>
     <use xlink:href="#ArialMT-13" transform="translate(247.363281 0.555573)"/>
     <use xlink:href="#ArialMT-1d" transform="translate(302.978516 0.555573)"/>
     <use xlink:href="#ArialMT-3" transform="translate(330.761719 0.555573)"/>
     <use xlink:href="#Cmmi10-70" transform="translate(358.544922 0.555573)"/>
     <use xlink:href="#Cmr10-77" transform="translate(450.75026 52.5) scale(0.7)"/>
     <use xlink:href="#Cmr10-7d" transform="translate(477.923112 52.5) scale(0.7)"/>
     <use xlink:href="#Cmr10-42" transform="translate(516.785416 52.5) scale(0.7)"/>
     <use xlink:href="#Cmr10-52" transform="translate(551.785416 52.5) scale(0.7)"/>
     <use xlink:href="#Cmr10-1c" transform="translate(579.368424 52.5) scale(0.7)"/>
     <use xlink:href="#Cmr10-44" transform="translate(606.541276 52.5) scale(0.7)"/>
     <use xlink:href="#Cmmi10-37" transform="translate(434.423828 -36.276563) scale(0.7)"/>
     <use xlink:href="#ArialMT-20" transform="translate(639.434543 0.555573)"/>
     <use xlink:href="#ArialMT-14" transform="translate(697.83298 0.555573)"/>
     <use xlink:href="#ArialMT-11" transform="translate(753.448215 0.555573)"/>
     <use xlink:href="#ArialMT-13" transform="translate(781.231418 0.555573)"/>
     <use xlink:href="#ArialMT-1c" transform="translate(836.846652 0.555573)"/>
     <use xlink:href="#ArialMT-f" transform="translate(892.461886 0.555573)"/>
     <use xlink:href="#ArialMT-3" transform="translate(920.24509 0.555573)"/>
     <use xlink:href="#Cmmi10-80" transform="translate(948.028293 0.555573)"/>
     <use xlink:href="#Cmr10-42" transform="translate(998.321261 -14.444389) scale(0.7)"/>
     <use xlink:href="#Cmr10-5a" transform="translate(1033.321261 -14.444389) scale(0.7)"/>
     <use xlink:href="#Cmr10-1c" transform="translate(1072.183566 -14.444389) scale(0.7)"/>
     <use xlink:href="#ArialMT-20" transform="translate(1105.076833 0.555573)"/>
     <use xlink:href="#ArialMT-13" transform="translate(1163.475271 0.555573)"/>
     <use xlink:href="#ArialMT-11" transform="translate(1219.090505 0.555573)"/>
     <use xlink:href="#ArialMT-1b" transform="translate(1246.873708 0.555573)"/>
     <use xlink:href="#ArialMT-17" transform="translate(1302.488943 0.555573)"/>
    </g>
    <!-- $P_s^{(\mathrm{post})}$=60.1% -->
    <g style="fill: #1b4f72" transform="translate(169.247 153.923352) scale(0.12 -0.12)">
     <use xlink:href="#Cmmi10-68" transform="translate(0 0.555573)"/>
     <use xlink:href="#Cmr10-77" transform="translate(80.535416 52.5) scale(0.7)"/>
     <use xlink:href="#Cmr10-7d" transform="translate(107.708268 52.5) scale(0.7)"/>
     <use xlink:href="#Cmr10-42" transform="translate(146.570572 52.5) scale(0.7)"/>
     <use xlink:href="#Cmr10-52" transform="translate(181.570572 52.5) scale(0.7)"/>
     <use xlink:href="#Cmr10-1c" transform="translate(209.15358 52.5) scale(0.7)"/>
     <use xlink:href="#Cmr10-44" transform="translate(236.326432 52.5) scale(0.7)"/>
     <use xlink:href="#Cmmi10-58" transform="translate(64.208984 -20.93125) scale(0.7)"/>
     <use xlink:href="#ArialMT-20" transform="translate(269.219699 0.555573)"/>
     <use xlink:href="#ArialMT-19" transform="translate(327.618136 0.555573)"/>
     <use xlink:href="#ArialMT-13" transform="translate(383.233371 0.555573)"/>
     <use xlink:href="#ArialMT-11" transform="translate(438.848605 0.555573)"/>
     <use xlink:href="#ArialMT-14" transform="translate(466.631808 0.555573)"/>
     <use xlink:href="#ArialMT-8" transform="translate(522.247043 0.555573)"/>
    </g>
    <!-- max gap 6.3pp at Q=0 -->
    <g style="fill: #1b4f72" transform="translate(169.247 167.225305) scale(0.12 -0.12)">
     <defs>
      <path id="ArialMT-5b" d="M 47 0 
L 1259 1725 
L 138 3319 
L 841 3319 
L 1350 2541 
Q 1494 2319 1581 2169 
Q 1719 2375 1834 2534 
L 2394 3319 
L 3066 3319 
L 1919 1756 
L 3153 0 
L 2463 0 
L 1781 1031 
L 1600 1309 
L 728 0 
L 47 0 
z
" transform="scale(0.015625)"/>
     </defs>
     <use xlink:href="#ArialMT-50"/>
     <use xlink:href="#ArialMT-44" transform="translate(83.296875 0)"/>
     <use xlink:href="#ArialMT-5b" transform="translate(138.90625 0)"/>
     <use xlink:href="#ArialMT-3" transform="translate(188.90625 0)"/>
     <use xlink:href="#ArialMT-4a" transform="translate(216.6875 0)"/>
     <use xlink:href="#ArialMT-44" transform="translate(272.296875 0)"/>
     <use xlink:href="#ArialMT-53" transform="translate(327.90625 0)"/>
     <use xlink:href="#ArialMT-3" transform="translate(383.515625 0)"/>
     <use xlink:href="#ArialMT-19" transform="translate(411.296875 0)"/>
     <use xlink:href="#ArialMT-11" transform="translate(466.90625 0)"/>
     <use xlink:href="#ArialMT-16" transform="translate(494.6875 0)"/>
     <use xlink:href="#ArialMT-53" transform="translate(550.296875 0)"/>
     <use xlink:href="#ArialMT-53" transform="translate(605.90625 0)"/>
     <use xlink:href="#ArialMT-3" transform="translate(661.515625 0)"/>
     <use xlink:href="#ArialMT-44" transform="translate(689.296875 0)"/>
     <use xlink:href="#ArialMT-57" transform="translate(744.90625 0)"/>
     <use xlink:href="#ArialMT-3" transform="translate(772.6875 0)"/>
     <use xlink:href="#ArialMT-34" transform="translate(800.46875 0)"/>
     <use xlink:href="#ArialMT-20" transform="translate(878.25 0)"/>
     <use xlink:href="#ArialMT-13" transform="translate(936.65625 0)"/>
    </g>
   </g>
  </g>
 </g>
 <defs>
  <clipPath id="pff3da7b4da">
   <rect x="63.02" y="16.624219" width="386.28" height="273.820156"/>
  </clipPath>
 </defs>
</svg>
