<?xml version="1.0" encoding="utf-8" standalone="no"?>
<!DOCTYPE svg PUBLIC "-//W3C//DTD SVG 1.1//EN"
  "http://www.w3.org/Graphics/SVG/1.1/DTD/svg11.dtd">
<svg xmlns:xlink="http://www.w3.org/1999/xlink" width="432pt" height="323.44989pt" viewBox="0 0 432 323.44989" xmlns="http://www.w3.org/2000/svg" version="1.1">
 <metadata>
  <rdf:RDF xmlns:dc="http://purl.org/dc/elements/1.1/" xmlns:cc="http://creativecommons.org/ns#" xmlns:rdf="http://www.w3.org/1999/02/22-rdf-syntax-ns#">
   <cc:Work>
    <dc:type rdf:resource="http://purl.org/dc/dcmitype/StillImage"/>
    <dc:date>2026-08-15T16:48:33.371848</dc:date>
    <dc:format>image/svg+xml</dc:format>
    <dc:creator>
     <cc:Agent>
      <dc:title>Matplotlib v3.11.0, https://matplotlib.org/</dc:title>
     </cc:Agent>
    </dc:creator>
   </cc:Work>
  </rdf:RDF>
 </metadata>
 <defs>
  <style type="text/css">*{stroke-linejoin: round; stroke-linecap: butt}</style>
 </defs>
 <g id="figure_1">
  <g id="patch_1">
   <path d="M 0 323.44989 
L 432 323.44989 
L 432 0 
L 0 0 
z
" style="fill: #ffffff"/>
  </g>
  <g id="axes_1">
   <g id="line2d_1">
    <path d="M 203.175 43.059133 
L 113.4 116.583885 
" clip-path="url(#p0b341d9ef3)" style="fill: none; stroke: #000000; stroke-width: 1.6; stroke-linecap: square"/>
   </g>
   <g id="line2d_2">
    <path d="M 203.175 43.059133 
L 292.95 116.583885 
" clip-path="url(#p0b341d9ef3)" style="fill: none; stroke: #000000; stroke-width: 1.6; stroke-linecap: square"/>
   </g>
   <g id="line2d_3">
    <path d="M 113.4 116.583885 
L 94.1625 190.108637 
" clip-path="url(#p0b341d9ef3)" style="fill: none; stroke: #595959; stroke-width: 1.6; stroke-linecap: square"/>
   </g>
   <g id="line2d_4">
    <path d="M 292.95 116.583885 
L 248.0625 190.108637 
" clip-path="url(#p0b341d9ef3)" style="fill: none; stroke: #b22222; stroke-width: 1.6; stroke-linecap: square"/>
   </g>
   <g id="line2d_5">
    <path d="M 292.95 116.583885 
L 299.3625 190.108637 
" clip-path="url(#p0b341d9ef3)" style="fill: none; stroke: #b22222; stroke-width: 1.6; stroke-linecap: square"/>
   </g>
   <g id="line2d_6">
    <path d="M 292.95 116.583885 
L 350.6625 190.108637 
" clip-path="url(#p0b341d9ef3)" style="fill: none; stroke: #b22222; stroke-width: 1.6; stroke-linecap: square"/>
   </g>
   <g id="line2d_7">
    <path d="M 248.0625 190.108637 
L 222.4125 263.633389 
" clip-path="url(#p0b341d9ef3)" style="fill: none; stroke: #b22222; stroke-width: 1.6; stroke-linecap: square"/>
   </g>
   <g id="line2d_8">
    <path d="M 248.0625 190.108637 
L 260.8875 263.633389 
" clip-path="url(#p0b341d9ef3)" style="fill: none; stroke: #b22222; stroke-width: 1.6; stroke-linecap: square"/>
   </g>
   <g id="line2d_9">
    <path d="M 299.3625 190.108637 
L 299.3625 263.633389 
" clip-path="url(#p0b341d9ef3)" style="fill: none; stroke: #b22222; stroke-width: 1.6; stroke-linecap: square"/>
   </g>
   <g id="line2d_10">
    <path d="M 350.6625 190.108637 
L 331.425 263.633389 
" clip-path="url(#p0b341d9ef3)" style="fill: none; stroke: #b22222; stroke-width: 1.6; stroke-linecap: square"/>
   </g>
   <g id="line2d_11">
    <path d="M 350.6625 190.108637 
L 369.9 263.633389 
" clip-path="url(#p0b341d9ef3)" style="fill: none; stroke: #b22222; stroke-width: 1.6; stroke-linecap: square"/>
   </g>
   <g id="patch_2">
    <path d="M 203.175 52.045491 
C 205.045676 52.045491 206.839987 51.098632 208.162754 49.413448 
C 209.485522 47.728264 210.22875 45.442343 210.22875 43.059133 
C 210.22875 40.675923 209.485522 38.390002 208.162754 36.704818 
C 206.839987 35.019634 205.045676 34.072774 203.175 34.072774 
C 201.304324 34.072774 199.510013 35.019634 198.187246 36.704818 
C 196.864478 38.390002 196.12125 40.675923 196.12125 43.059133 
C 196.12125 45.442343 196.864478 47.728264 198.187246 49.413448 
C 199.510013 51.098632 201.304324 52.045491 203.175 52.045491 
z
" clip-path="url(#p0b341d9ef3)"/>
   </g>
   <g id="patch_3">
    <path d="M 113.4 125.570243 
C 115.270676 125.570243 117.064987 124.623384 118.387754 122.9382 
C 119.710522 121.253016 120.45375 118.967095 120.45375 116.583885 
C 120.45375 114.200675 119.710522 111.914754 118.387754 110.22957 
C 117.064987 108.544386 115.270676 107.597526 113.4 107.597526 
C 111.529324 107.597526 109.735013 108.544386 108.412246 110.22957 
C 107.089478 111.914754 106.34625 114.200675 106.34625 116.583885 
C 106.34625 118.967095 107.089478 121.253016 108.412246 122.9382 
C 109.735013 124.623384 111.529324 125.570243 113.4 125.570243 
z
" clip-path="url(#p0b341d9ef3)"/>
   </g>
   <g id="patch_4">
    <path d="M 292.95 125.570243 
C 294.820676 125.570243 296.614987 124.623384 297.937754 122.9382 
C 299.260522 121.253016 300.00375 118.967095 300.00375 116.583885 
C 300.00375 114.200675 299.260522 111.914754 297.937754 110.22957 
C 296.614987 108.544386 294.820676 107.597526 292.95 107.597526 
C 291.079324 107.597526 289.285013 108.544386 287.962246 110.22957 
C 286.639478 111.914754 285.89625 114.200675 285.89625 116.583885 
C 285.89625 118.967095 286.639478 121.253016 287.962246 122.9382 
C 289.285013 124.623384 291.079324 125.570243 292.95 125.570243 
z
" clip-path="url(#p0b341d9ef3)"/>
   </g>
   <g id="patch_5">
    <path d="M 94.1625 199.094995 
C 96.033176 199.094995 97.827487 198.148136 99.150254 196.462952 
C 100.473022 194.777768 101.21625 192.491847 101.21625 190.108637 
C 101.21625 187.725427 100.473022 185.439506 99.150254 183.754322 
C 97.827487 182.069138 96.033176 181.122278 94.1625 181.122278 
C 92.291824 181.122278 90.497513 182.069138 89.174746 183.754322 
C 87.851978 185.439506 87.10875 187.725427 87.10875 190.108637 
C 87.10875 192.491847 87.851978 194.777768 89.174746 196.462952 
C 90.497513 198.148136 92.291824 199.094995 94.1625 199.094995 
z
" clip-path="url(#p0b341d9ef3)" style="fill: #595959"/>
   </g>
   <g id="text_1">
    <!-- dies out -->
    <g style="fill: #595959" transform="translate(74.900469 226.709897) scale(0.11 -0.11)">
     <defs>
      <path id="ArialMT-47" d="M 2575 0 
L 2575 419 
Q 2259 -75 1647 -75 
Q 1250 -75 917 144 
Q 584 363 401 755 
Q 219 1147 219 1656 
Q 219 2153 384 2558 
Q 550 2963 881 3178 
Q 1213 3394 1622 3394 
Q 1922 3394 2156 3267 
Q 2391 3141 2538 2938 
L 2538 4581 
L 3097 4581 
L 3097 0 
L 2575 0 
z
M 797 1656 
Q 797 1019 1065 703 
Q 1334 388 1700 388 
Q 2069 388 2326 689 
Q 2584 991 2584 1609 
Q 2584 2291 2321 2609 
Q 2059 2928 1675 2928 
Q 1300 2928 1048 2622 
Q 797 2316 797 1656 
z
" transform="scale(0.015625)"/>
      <path id="ArialMT-4c" d="M 425 3934 
L 425 4581 
L 988 4581 
L 988 3934 
L 425 3934 
z
M 425 0 
L 425 3319 
L 988 3319 
L 988 0 
L 425 0 
z
" transform="scale(0.015625)"/>
      <path id="ArialMT-48" d="M 2694 1069 
L 3275 997 
Q 3138 488 2766 206 
Q 2394 -75 1816 -75 
Q 1088 -75 661 373 
Q 234 822 234 1631 
Q 234 2469 665 2931 
Q 1097 3394 1784 3394 
Q 2450 3394 2872 2941 
Q 3294 2488 3294 1666 
Q 3294 1616 3291 1516 
L 816 1516 
Q 847 969 1125 678 
Q 1403 388 1819 388 
Q 2128 388 2347 550 
Q 2566 713 2694 1069 
z
M 847 1978 
L 2700 1978 
Q 2663 2397 2488 2606 
Q 2219 2931 1791 2931 
Q 1403 2931 1139 2672 
Q 875 2413 847 1978 
z
" transform="scale(0.015625)"/>
      <path id="ArialMT-56" d="M 197 991 
L 753 1078 
Q 800 744 1014 566 
Q 1228 388 1613 388 
Q 2000 388 2187 545 
Q 2375 703 2375 916 
Q 2375 1106 2209 1216 
Q 2094 1291 1634 1406 
Q 1016 1563 777 1677 
Q 538 1791 414 1992 
Q 291 2194 291 2438 
Q 291 2659 392 2848 
Q 494 3038 669 3163 
Q 800 3259 1026 3326 
Q 1253 3394 1513 3394 
Q 1903 3394 2198 3281 
Q 2494 3169 2634 2976 
Q 2775 2784 2828 2463 
L 2278 2388 
Q 2241 2644 2061 2787 
Q 1881 2931 1553 2931 
Q 1166 2931 1000 2803 
Q 834 2675 834 2503 
Q 834 2394 903 2306 
Q 972 2216 1119 2156 
Q 1203 2125 1616 2013 
Q 2213 1853 2448 1751 
Q 2684 1650 2818 1456 
Q 2953 1263 2953 975 
Q 2953 694 2789 445 
Q 2625 197 2315 61 
Q 2006 -75 1616 -75 
Q 969 -75 630 194 
Q 291 463 197 991 
z
" transform="scale(0.015625)"/>
      <path id="ArialMT-3" transform="scale(0.015625)"/>
      <path id="ArialMT-52" d="M 213 1659 
Q 213 2581 725 3025 
Q 1153 3394 1769 3394 
Q 2453 3394 2887 2945 
Q 3322 2497 3322 1706 
Q 3322 1066 3130 698 
Q 2938 331 2570 128 
Q 2203 -75 1769 -75 
Q 1072 -75 642 372 
Q 213 819 213 1659 
z
M 791 1659 
Q 791 1022 1069 705 
Q 1347 388 1769 388 
Q 2188 388 2466 706 
Q 2744 1025 2744 1678 
Q 2744 2294 2464 2611 
Q 2184 2928 1769 2928 
Q 1347 2928 1069 2612 
Q 791 2297 791 1659 
z
" transform="scale(0.015625)"/>
      <path id="ArialMT-58" d="M 2597 0 
L 2597 488 
Q 2209 -75 1544 -75 
Q 1250 -75 995 37 
Q 741 150 617 320 
Q 494 491 444 738 
Q 409 903 409 1263 
L 409 3319 
L 972 3319 
L 972 1478 
Q 972 1038 1006 884 
Q 1059 663 1231 536 
Q 1403 409 1656 409 
Q 1909 409 2131 539 
Q 2353 669 2445 892 
Q 2538 1116 2538 1541 
L 2538 3319 
L 3100 3319 
L 3100 0 
L 2597 0 
z
" transform="scale(0.015625)"/>
      <path id="ArialMT-57" d="M 1650 503 
L 1731 6 
Q 1494 -44 1306 -44 
Q 1000 -44 831 53 
Q 663 150 594 308 
Q 525 466 525 972 
L 525 2881 
L 113 2881 
L 113 3319 
L 525 3319 
L 525 4141 
L 1084 4478 
L 1084 3319 
L 1650 3319 
L 1650 2881 
L 1084 2881 
L 1084 941 
Q 1084 700 1114 631 
Q 1144 563 1211 522 
Q 1278 481 1403 481 
Q 1497 481 1650 503 
z
" transform="scale(0.015625)"/>
     </defs>
     <use xlink:href="#ArialMT-47"/>
     <use xlink:href="#ArialMT-4c" transform="translate(55.609375 0)"/>
     <use xlink:href="#ArialMT-48" transform="translate(77.828125 0)"/>
     <use xlink:href="#ArialMT-56" transform="translate(133.4375 0)"/>
     <use xlink:href="#ArialMT-3" transform="translate(183.4375 0)"/>
     <use xlink:href="#ArialMT-52" transform="translate(211.21875 0)"/>
     <use xlink:href="#ArialMT-58" transform="translate(266.828125 0)"/>
     <use xlink:href="#ArialMT-57" transform="translate(322.4375 0)"/>
    </g>
   </g>
   <g id="patch_6">
    <path d="M 248.0625 199.094995 
C 249.933176 199.094995 251.727487 198.148136 253.050254 196.462952 
C 254.373022 194.777768 255.11625 192.491847 255.11625 190.108637 
C 255.11625 187.725427 254.373022 185.439506 253.050254 183.754322 
C 251.727487 182.069138 249.933176 181.122278 248.0625 181.122278 
C 246.191824 181.122278 244.397513 182.069138 243.074746 183.754322 
C 241.751978 185.439506 241.00875 187.725427 241.00875 190.108637 
C 241.00875 192.491847 241.751978 194.777768 243.074746 196.462952 
C 244.397513 198.148136 246.191824 199.094995 248.0625 199.094995 
z
" clip-path="url(#p0b341d9ef3)" style="fill: #b22222"/>
   </g>
   <g id="patch_7">
    <path d="M 299.3625 199.094995 
C 301.233176 199.094995 303.027487 198.148136 304.350254 196.462952 
C 305.673022 194.777768 306.41625 192.491847 306.41625 190.108637 
C 306.41625 187.725427 305.673022 185.439506 304.350254 183.754322 
C 303.027487 182.069138 301.233176 181.122278 299.3625 181.122278 
C 297.491824 181.122278 295.697513 182.069138 294.374746 183.754322 
C 293.051978 185.439506 292.30875 187.725427 292.30875 190.108637 
C 292.30875 192.491847 293.051978 194.777768 294.374746 196.462952 
C 295.697513 198.148136 297.491824 199.094995 299.3625 199.094995 
z
" clip-path="url(#p0b341d9ef3)" style="fill: #b22222"/>
   </g>
   <g id="patch_8">
    <path d="M 350.6625 199.094995 
C 352.533176 199.094995 354.327487 198.148136 355.650254 196.462952 
C 356.973022 194.777768 357.71625 192.491847 357.71625 190.108637 
C 357.71625 187.725427 356.973022 185.439506 355.650254 183.754322 
C 354.327487 182.069138 352.533176 181.122278 350.6625 181.122278 
C 348.791824 181.122278 346.997513 182.069138 345.674746 183.754322 
C 344.351978 185.439506 343.60875 187.725427 343.60875 190.108637 
C 343.60875 192.491847 344.351978 194.777768 345.674746 196.462952 
C 346.997513 198.148136 348.791824 199.094995 350.6625 199.094995 
z
" clip-path="url(#p0b341d9ef3)" style="fill: #b22222"/>
   </g>
   <g id="patch_9">
    <path d="M 222.4125 270.985864 
C 223.943053 270.985864 225.411125 270.211161 226.49339 268.832374 
C 227.575655 267.453587 228.18375 265.583288 228.18375 263.633389 
C 228.18375 261.68349 227.575655 259.813191 226.49339 258.434404 
C 225.411125 257.055617 223.943053 256.280914 222.4125 256.280914 
C 220.881947 256.280914 219.413875 257.055617 218.33161 258.434404 
C 217.249345 259.813191 216.64125 261.68349 216.64125 263.633389 
C 216.64125 265.583288 217.249345 267.453587 218.33161 268.832374 
C 219.413875 270.211161 220.881947 270.985864 222.4125 270.985864 
z
" clip-path="url(#p0b341d9ef3)" style="fill: #b22222"/>
   </g>
   <g id="patch_10">
    <path d="M 260.8875 270.985864 
C 262.418053 270.985864 263.886125 270.211161 264.96839 268.832374 
C 266.050655 267.453587 266.65875 265.583288 266.65875 263.633389 
C 266.65875 261.68349 266.050655 259.813191 264.96839 258.434404 
C 263.886125 257.055617 262.418053 256.280914 260.8875 256.280914 
C 259.356947 256.280914 257.888875 257.055617 256.80661 258.434404 
C 255.724345 259.813191 255.11625 261.68349 255.11625 263.633389 
C 255.11625 265.583288 255.724345 267.453587 256.80661 268.832374 
C 257.888875 270.211161 259.356947 270.985864 260.8875 270.985864 
z
" clip-path="url(#p0b341d9ef3)" style="fill: #b22222"/>
   </g>
   <g id="patch_11">
    <path d="M 299.3625 270.985864 
C 300.893053 270.985864 302.361125 270.211161 303.44339 268.832374 
C 304.525655 267.453587 305.13375 265.583288 305.13375 263.633389 
C 305.13375 261.68349 304.525655 259.813191 303.44339 258.434404 
C 302.361125 257.055617 300.893053 256.280914 299.3625 256.280914 
C 297.831947 256.280914 296.363875 257.055617 295.28161 258.434404 
C 294.199345 259.813191 293.59125 261.68349 293.59125 263.633389 
C 293.59125 265.583288 294.199345 267.453587 295.28161 268.832374 
C 296.363875 270.211161 297.831947 270.985864 299.3625 270.985864 
z
" clip-path="url(#p0b341d9ef3)" style="fill: #b22222"/>
   </g>
   <g id="patch_12">
    <path d="M 331.425 270.985864 
C 332.955553 270.985864 334.423625 270.211161 335.50589 268.832374 
C 336.588155 267.453587 337.19625 265.583288 337.19625 263.633389 
C 337.19625 261.68349 336.588155 259.813191 335.50589 258.434404 
C 334.423625 257.055617 332.955553 256.280914 331.425 256.280914 
C 329.894447 256.280914 328.426375 257.055617 327.34411 258.434404 
C 326.261845 259.813191 325.65375 261.68349 325.65375 263.633389 
C 325.65375 265.583288 326.261845 267.453587 327.34411 268.832374 
C 328.426375 270.211161 329.894447 270.985864 331.425 270.985864 
z
" clip-path="url(#p0b341d9ef3)" style="fill: #b22222"/>
   </g>
   <g id="patch_13">
    <path d="M 369.9 270.985864 
C 371.430553 270.985864 372.898625 270.211161 373.98089 268.832374 
C 375.063155 267.453587 375.67125 265.583288 375.67125 263.633389 
C 375.67125 261.68349 375.063155 259.813191 373.98089 258.434404 
C 372.898625 257.055617 371.430553 256.280914 369.9 256.280914 
C 368.369447 256.280914 366.901375 257.055617 365.81911 258.434404 
C 364.736845 259.813191 364.12875 261.68349 364.12875 263.633389 
C 364.12875 265.583288 364.736845 267.453587 365.81911 268.832374 
C 366.901375 270.211161 368.369447 270.985864 369.9 270.985864 
z
" clip-path="url(#p0b341d9ef3)" style="fill: #b22222"/>
   </g>
   <g id="text_2">
    <!-- major outbreak -->
    <g style="fill: #b22222" transform="translate(262.680938 300.234649) scale(0.11 -0.11)">
     <defs>
      <path id="ArialMT-50" d="M 422 0 
L 422 3319 
L 925 3319 
L 925 2853 
Q 1081 3097 1340 3245 
Q 1600 3394 1931 3394 
Q 2300 3394 2536 3241 
Q 2772 3088 2869 2813 
Q 3263 3394 3894 3394 
Q 4388 3394 4653 3120 
Q 4919 2847 4919 2278 
L 4919 0 
L 4359 0 
L 4359 2091 
Q 4359 2428 4304 2576 
Q 4250 2725 4106 2815 
Q 3963 2906 3769 2906 
Q 3419 2906 3187 2673 
Q 2956 2441 2956 1928 
L 2956 0 
L 2394 0 
L 2394 2156 
Q 2394 2531 2256 2718 
Q 2119 2906 1806 2906 
Q 1569 2906 1367 2781 
Q 1166 2656 1075 2415 
Q 984 2175 984 1722 
L 984 0 
L 422 0 
z
" transform="scale(0.015625)"/>
      <path id="ArialMT-44" d="M 2588 409 
Q 2275 144 1986 34 
Q 1697 -75 1366 -75 
Q 819 -75 525 192 
Q 231 459 231 875 
Q 231 1119 342 1320 
Q 453 1522 633 1644 
Q 813 1766 1038 1828 
Q 1203 1872 1538 1913 
Q 2219 1994 2541 2106 
Q 2544 2222 2544 2253 
Q 2544 2597 2384 2738 
Q 2169 2928 1744 2928 
Q 1347 2928 1158 2789 
Q 969 2650 878 2297 
L 328 2372 
Q 403 2725 575 2942 
Q 747 3159 1072 3276 
Q 1397 3394 1825 3394 
Q 2250 3394 2515 3294 
Q 2781 3194 2906 3042 
Q 3031 2891 3081 2659 
Q 3109 2516 3109 2141 
L 3109 1391 
Q 3109 606 3145 398 
Q 3181 191 3288 0 
L 2700 0 
Q 2613 175 2588 409 
z
M 2541 1666 
Q 2234 1541 1622 1453 
Q 1275 1403 1131 1340 
Q 988 1278 909 1158 
Q 831 1038 831 891 
Q 831 666 1001 516 
Q 1172 366 1500 366 
Q 1825 366 2078 508 
Q 2331 650 2450 897 
Q 2541 1088 2541 1459 
L 2541 1666 
z
" transform="scale(0.015625)"/>
      <path id="ArialMT-4d" d="M 419 3928 
L 419 4581 
L 981 4581 
L 981 3928 
L 419 3928 
z
M -294 -1288 
L -188 -809 
Q -19 -853 78 -853 
Q 250 -853 334 -739 
Q 419 -625 419 -169 
L 419 3319 
L 981 3319 
L 981 -181 
Q 981 -794 822 -1034 
Q 619 -1347 147 -1347 
Q -81 -1347 -294 -1288 
z
" transform="scale(0.015625)"/>
      <path id="ArialMT-55" d="M 416 0 
L 416 3319 
L 922 3319 
L 922 2816 
Q 1116 3169 1280 3281 
Q 1444 3394 1641 3394 
Q 1925 3394 2219 3213 
L 2025 2691 
Q 1819 2813 1613 2813 
Q 1428 2813 1281 2702 
Q 1134 2591 1072 2394 
Q 978 2094 978 1738 
L 978 0 
L 416 0 
z
" transform="scale(0.015625)"/>
      <path id="ArialMT-45" d="M 941 0 
L 419 0 
L 419 4581 
L 981 4581 
L 981 2947 
Q 1338 3394 1891 3394 
Q 2197 3394 2470 3270 
Q 2744 3147 2920 2923 
Q 3097 2700 3197 2384 
Q 3297 2069 3297 1709 
Q 3297 856 2875 390 
Q 2453 -75 1863 -75 
Q 1275 -75 941 416 
L 941 0 
z
M 934 1684 
Q 934 1088 1097 822 
Q 1363 388 1816 388 
Q 2184 388 2453 708 
Q 2722 1028 2722 1663 
Q 2722 2313 2464 2622 
Q 2206 2931 1841 2931 
Q 1472 2931 1203 2611 
Q 934 2291 934 1684 
z
" transform="scale(0.015625)"/>
      <path id="ArialMT-4e" d="M 425 0 
L 425 4581 
L 988 4581 
L 988 1969 
L 2319 3319 
L 3047 3319 
L 1778 2088 
L 3175 0 
L 2481 0 
L 1384 1697 
L 988 1316 
L 988 0 
L 425 0 
z
" transform="scale(0.015625)"/>
     </defs>
     <use xlink:href="#ArialMT-50"/>
     <use xlink:href="#ArialMT-44" transform="translate(83.296875 0)"/>
     <use xlink:href="#ArialMT-4d" transform="translate(138.90625 0)"/>
     <use xlink:href="#ArialMT-52" transform="translate(161.125 0)"/>
     <use xlink:href="#ArialMT-55" transform="translate(216.734375 0)"/>
     <use xlink:href="#ArialMT-3" transform="translate(250.03125 0)"/>
     <use xlink:href="#ArialMT-52" transform="translate(277.8125 0)"/>
     <use xlink:href="#ArialMT-58" transform="translate(333.421875 0)"/>
     <use xlink:href="#ArialMT-57" transform="translate(389.03125 0)"/>
     <use xlink:href="#ArialMT-45" transform="translate(416.8125 0)"/>
     <use xlink:href="#ArialMT-55" transform="translate(472.421875 0)"/>
     <use xlink:href="#ArialMT-48" transform="translate(505.71875 0)"/>
     <use xlink:href="#ArialMT-44" transform="translate(561.328125 0)"/>
     <use xlink:href="#ArialMT-4e" transform="translate(616.9375 0)"/>
    </g>
   </g>
   <g id="text_3">
    <!-- one infected source -->
    <g style="fill: #4c4c4c" transform="translate(159.538281 18.080273) scale(0.1 -0.1)">
     <defs>
      <path id="ArialMT-51" d="M 422 0 
L 422 3319 
L 928 3319 
L 928 2847 
Q 1294 3394 1984 3394 
Q 2284 3394 2536 3286 
Q 2788 3178 2913 3003 
Q 3038 2828 3088 2588 
Q 3119 2431 3119 2041 
L 3119 0 
L 2556 0 
L 2556 2019 
Q 2556 2363 2490 2533 
Q 2425 2703 2258 2804 
Q 2091 2906 1866 2906 
Q 1506 2906 1245 2678 
Q 984 2450 984 1813 
L 984 0 
L 422 0 
z
" transform="scale(0.015625)"/>
      <path id="ArialMT-49" d="M 556 0 
L 556 2881 
L 59 2881 
L 59 3319 
L 556 3319 
L 556 3672 
Q 556 4006 616 4169 
Q 697 4388 901 4523 
Q 1106 4659 1475 4659 
Q 1713 4659 2000 4603 
L 1916 4113 
Q 1741 4144 1584 4144 
Q 1328 4144 1222 4034 
Q 1116 3925 1116 3625 
L 1116 3319 
L 1763 3319 
L 1763 2881 
L 1116 2881 
L 1116 0 
L 556 0 
z
" transform="scale(0.015625)"/>
      <path id="ArialMT-46" d="M 2588 1216 
L 3141 1144 
Q 3050 572 2676 248 
Q 2303 -75 1759 -75 
Q 1078 -75 664 370 
Q 250 816 250 1647 
Q 250 2184 428 2587 
Q 606 2991 970 3192 
Q 1334 3394 1763 3394 
Q 2303 3394 2647 3120 
Q 2991 2847 3088 2344 
L 2541 2259 
Q 2463 2594 2264 2762 
Q 2066 2931 1784 2931 
Q 1359 2931 1093 2626 
Q 828 2322 828 1663 
Q 828 994 1084 691 
Q 1341 388 1753 388 
Q 2084 388 2306 591 
Q 2528 794 2588 1216 
z
" transform="scale(0.015625)"/>
     </defs>
     <use xlink:href="#ArialMT-52"/>
     <use xlink:href="#ArialMT-51" transform="translate(55.609375 0)"/>
     <use xlink:href="#ArialMT-48" transform="translate(111.21875 0)"/>
     <use xlink:href="#ArialMT-3" transform="translate(166.828125 0)"/>
     <use xlink:href="#ArialMT-4c" transform="translate(194.609375 0)"/>
     <use xlink:href="#ArialMT-51" transform="translate(216.828125 0)"/>
     <use xlink:href="#ArialMT-49" transform="translate(272.4375 0)"/>
     <use xlink:href="#ArialMT-48" transform="translate(300.21875 0)"/>
     <use xlink:href="#ArialMT-46" transform="translate(355.828125 0)"/>
     <use xlink:href="#ArialMT-57" transform="translate(405.828125 0)"/>
     <use xlink:href="#ArialMT-48" transform="translate(433.609375 0)"/>
     <use xlink:href="#ArialMT-47" transform="translate(489.21875 0)"/>
     <use xlink:href="#ArialMT-3" transform="translate(544.828125 0)"/>
     <use xlink:href="#ArialMT-56" transform="translate(572.609375 0)"/>
     <use xlink:href="#ArialMT-52" transform="translate(622.609375 0)"/>
     <use xlink:href="#ArialMT-58" transform="translate(678.21875 0)"/>
     <use xlink:href="#ArialMT-55" transform="translate(733.828125 0)"/>
     <use xlink:href="#ArialMT-46" transform="translate(767.125 0)"/>
     <use xlink:href="#ArialMT-48" transform="translate(817.125 0)"/>
    </g>
   </g>
  </g>
 </g>
 <defs>
  <clipPath id="p0b341d9ef3">
   <rect x="10.8" y="18.550882" width="410.4" height="294.099008"/>
  </clipPath>
 </defs>
</svg>
